<svg width="445" height="445" viewBox="0 0 445 445" fill="none" xmlns="http://www.w3.org/2000/svg">
<g clip-path="url(#clip0)">
<path d="M319.743 253.289C319.743 253.289 318.448 198.584 343.644 183.943C368.839 169.302 416.763 160.148 418.562 81.5983C419.615 35.6119 420.753 15.5063 421.516 6.73921C421.587 5.94264 421.472 5.14049 421.181 4.39572C420.89 3.65094 420.43 2.9838 419.837 2.44665C419.244 1.90951 418.535 1.51697 417.765 1.29985C416.995 1.08273 416.186 1.04694 415.4 1.19528C391.529 5.68961 313.993 24.1925 297.732 77.104C278.459 139.829 319.743 253.289 319.743 253.289Z" fill="#91B3FA"/>
<path d="M396.939 23.0491C370.732 46.4102 340.441 87.7551 324.293 129.1C322.219 135.915 316.156 150.406 313.524 176.151C311.172 197.623 312.342 220.313 315.192 235.332C315.279 235.788 315.543 236.191 315.926 236.453C316.31 236.714 316.782 236.812 317.238 236.726C318.872 236.416 318.655 234.659 318.639 234.714C315.383 209.053 316.735 177.114 324.198 148.295C333.729 112.908 354.995 78.5983 376.989 49.5024L379.254 46.6366C396.295 24.7601 399.881 24.5984 398.289 23.0733C398.108 22.9008 397.869 22.8025 397.619 22.798C397.368 22.7935 397.126 22.8831 396.939 23.0491Z" fill="#BDD0FB"/>
<path d="M288.248 353.627C284.838 355.3 320.529 310.429 331.708 239.959C336.977 206.752 337.047 165.145 355.974 149.112C371.722 135.768 425.309 144.192 442.844 147.394C443.335 147.483 443.791 147.71 444.157 148.048C444.524 148.387 444.787 148.823 444.916 149.305C445.044 149.787 445.032 150.296 444.882 150.772C444.732 151.248 444.449 151.671 444.067 151.992C435.655 159.053 417.671 175.704 412.984 192.488C406.8 214.609 385.763 228.679 366.932 232.486C348.1 236.293 337.623 239.988 328.447 270.098C319.272 300.208 297.936 348.877 288.248 353.627Z" fill="#BDD0FB"/>
<path d="M418.172 156.74C395.801 157.677 371.788 167.878 359.602 187.015L358.452 188.841C355.796 193.124 340.74 223.562 332.378 248.794C332.328 248.945 332.341 249.11 332.412 249.252C332.484 249.394 332.609 249.502 332.76 249.553C332.907 249.599 333.066 249.587 333.206 249.52C333.345 249.454 333.454 249.337 333.51 249.194C339.334 234.939 347.704 216.866 354.367 203.353C361.514 188.605 366.515 178.619 382.816 169.053C400.96 158.751 418.292 157.69 418.243 157.7C418.358 157.675 418.46 157.611 418.531 157.517C418.602 157.423 418.636 157.307 418.628 157.19C418.62 157.073 418.569 156.963 418.486 156.881C418.403 156.798 418.292 156.748 418.175 156.74H418.172Z" fill="url(#paint0_linear)"/>
<path d="M85.7811 106.182C85.7809 102.822 86.4427 99.4956 87.7286 96.3916C89.0146 93.2876 90.8995 90.4672 93.2758 88.0916C95.6522 85.7159 98.4733 83.8315 101.578 82.5459C104.683 81.2602 108.011 80.5987 111.371 80.5989H328.992C334.773 80.5993 340.333 82.8194 344.523 86.8006C348.714 90.7819 351.214 96.2201 351.509 101.992L367.573 417.412C367.686 419.637 367.351 421.863 366.587 423.957C365.822 426.051 364.645 427.969 363.124 429.599C361.603 431.228 359.77 432.535 357.733 433.442C355.697 434.349 353.499 434.837 351.27 434.878L101.848 439.406C99.7518 439.444 97.6691 439.064 95.7215 438.289C93.7738 437.513 92.0003 436.357 90.5045 434.888C89.0087 433.42 87.8206 431.668 87.0096 429.735C86.1986 427.802 85.781 425.728 85.7811 423.632V106.182Z" fill="#1E4B9B"/>
<path d="M138.303 434.048H138.294L110.386 433.687C101.054 433.566 93.4619 425.878 93.4619 416.545V374.422C93.4619 374.264 93.5246 374.113 93.6363 374.001C93.7479 373.889 93.8993 373.827 94.0572 373.827C94.2151 373.827 94.3665 373.889 94.4782 374.001C94.5898 374.113 94.6525 374.264 94.6525 374.422V416.548C94.6525 425.229 101.717 432.384 110.401 432.497L138.312 432.858C138.47 432.858 138.622 432.921 138.733 433.032C138.845 433.144 138.908 433.295 138.908 433.453C138.908 433.611 138.845 433.762 138.733 433.874C138.622 433.985 138.47 434.048 138.312 434.048H138.303Z" fill="#91B3FA"/>
<path d="M94.0572 361.969C93.8993 361.969 93.7479 361.906 93.6363 361.795C93.5246 361.683 93.4619 361.532 93.4619 361.374V354.552C93.4619 354.395 93.5246 354.243 93.6363 354.132C93.7479 354.02 93.8993 353.957 94.0572 353.957C94.2151 353.957 94.3665 354.02 94.4782 354.132C94.5898 354.243 94.6525 354.395 94.6525 354.552V361.374C94.6525 361.532 94.5898 361.683 94.4782 361.795C94.3665 361.906 94.2151 361.969 94.0572 361.969Z" fill="url(#paint1_linear)"/>
<path d="M103.61 85.4538C103.603 84.3895 103.824 83.3361 104.26 82.3649C104.695 81.3937 105.334 80.5274 106.134 79.8246C106.933 79.1218 107.874 78.5989 108.894 78.2913C109.913 77.9838 110.986 77.8987 112.041 78.0419C141.758 82.0705 243.951 94.5378 328.442 88.0478C329.357 87.976 330.276 88.0876 331.146 88.3763C332.016 88.6649 332.82 89.1247 333.51 89.7286C334.199 90.3324 334.761 91.0681 335.162 91.8924C335.564 92.7167 335.796 93.6128 335.845 94.5281L352.688 411.358C352.8 413.445 352.081 415.491 350.689 417.049C349.296 418.607 347.343 419.551 345.257 419.674C309.723 421.776 163.375 429.903 111.177 424.437C109.643 424.275 108.223 423.553 107.188 422.409C106.153 421.265 105.576 419.78 105.569 418.238L103.61 85.4538Z" fill="#91B3FA"/>
<path d="M107.11 93.393C107.104 92.3689 107.317 91.3554 107.736 90.4209C108.155 89.4865 108.77 88.6529 109.539 87.9767C110.308 87.3005 111.214 86.7973 112.195 86.5013C113.175 86.2053 114.208 86.1233 115.223 86.2609C143.822 90.1423 242.168 102.129 323.478 95.8884C324.357 95.82 325.241 95.9282 326.078 96.2064C326.915 96.4847 327.687 96.9274 328.351 97.5086C329.014 98.0898 329.554 98.7977 329.939 99.5907C330.325 100.384 330.548 101.246 330.595 102.126L346.805 407.026C346.914 409.034 346.223 411.004 344.882 412.504C343.542 414.004 341.661 414.911 339.653 415.028C305.457 417.051 164.619 424.872 114.385 419.613C112.909 419.457 111.542 418.761 110.546 417.66C109.551 416.559 108.997 415.129 108.99 413.645L107.11 93.393Z" fill="#B3B3B3"/>
<path opacity="0.78" d="M133.585 116.899L136.622 182.264C136.67 183.311 137.113 184.302 137.861 185.037C138.609 185.772 139.608 186.198 140.656 186.228C152.765 186.57 190.499 187.489 211.804 186.38C212.966 186.319 214.062 185.824 214.877 184.993C215.691 184.162 216.163 183.056 216.201 181.893C216.607 169.635 217.495 133.955 214.703 119.039C214.481 117.869 213.868 116.81 212.964 116.035C212.06 115.261 210.918 114.817 209.728 114.778L138.151 112.279C137.541 112.258 136.933 112.364 136.366 112.589C135.799 112.815 135.284 113.155 134.855 113.589C134.426 114.023 134.092 114.542 133.874 115.111C133.655 115.681 133.557 116.29 133.585 116.899Z" fill="white"/>
<g opacity="0.6">
<path opacity="0.6" d="M312.772 122.587C314.11 122.587 315.176 121.601 315.14 120.394C315.105 119.188 313.982 118.182 312.644 118.158L233.918 116.765C232.58 116.741 231.849 117.755 232.3 119.017L232.753 120.31C233.198 121.572 234.655 122.605 235.988 122.605L312.772 122.587Z" fill="white"/>
</g>
<g opacity="0.6">
<path opacity="0.6" d="M233.918 128.945C232.58 128.921 231.849 129.935 232.3 131.196L232.753 132.482C233.198 133.743 234.655 134.777 235.988 134.777H312.767C314.105 134.777 315.171 133.79 315.135 132.584C315.1 131.377 313.977 130.371 312.639 130.347L233.918 128.945Z" fill="white"/>
</g>
<g opacity="0.6">
<path opacity="0.6" d="M233.918 141.307C232.58 141.284 231.849 142.297 232.3 143.558L232.753 144.852C233.198 146.114 234.655 147.145 235.988 147.145H312.767C314.105 147.145 315.171 146.159 315.135 144.952C315.1 143.746 313.977 142.74 312.639 142.717L233.918 141.307Z" fill="white"/>
</g>
<g opacity="0.6">
<path opacity="0.6" d="M320.394 206.76C321.732 206.76 322.763 205.774 322.683 204.567C322.604 203.361 321.443 202.366 320.105 202.357L135.996 200.901C134.658 200.89 134.245 201.737 135.078 202.783L136.727 204.854C137.56 205.9 139.338 206.755 140.676 206.755L320.394 206.76Z" fill="white"/>
</g>
<g opacity="0.6">
<path opacity="0.6" d="M135.996 213.092C134.658 213.081 134.245 213.928 135.078 214.974L136.727 217.044C137.56 218.091 139.338 218.946 140.676 218.946H320.401C321.739 218.946 322.769 217.96 322.69 216.755C322.611 215.55 321.449 214.552 320.111 214.543L135.996 213.092Z" fill="white"/>
</g>
<path d="M135.284 233.438C139.705 233.1 147.983 232.944 152.541 232.879C153.479 232.865 154.393 233.17 155.134 233.744C155.874 234.318 156.398 235.127 156.618 236.037C157.498 239.683 158.711 246.013 158.559 252.719C158.539 253.684 158.139 254.602 157.446 255.274C156.753 255.946 155.823 256.318 154.858 256.31L138.034 256.128C137.036 256.117 136.077 255.736 135.343 255.059C134.608 254.383 134.15 253.459 134.056 252.465L132.578 236.649C132.541 236.26 132.582 235.867 132.699 235.494C132.815 235.121 133.005 234.775 133.257 234.476C133.509 234.177 133.818 233.931 134.166 233.753C134.514 233.575 134.894 233.468 135.284 233.438Z" fill="url(#paint2_linear)"/>
<g opacity="0.6">
<path opacity="0.6" d="M166.268 239.928C164.93 239.873 164.003 240.91 164.199 242.233L164.64 245.175C164.759 245.836 165.101 246.435 165.61 246.873C166.119 247.311 166.763 247.561 167.434 247.58H208.52C208.837 247.579 209.152 247.516 209.445 247.394C209.738 247.272 210.003 247.093 210.227 246.867C210.45 246.642 210.627 246.374 210.746 246.08C210.865 245.786 210.925 245.471 210.922 245.154L210.911 244.23C210.894 243.576 210.631 242.952 210.175 242.483C209.719 242.014 209.102 241.733 208.449 241.698L166.268 239.928Z" fill="white"/>
</g>
<path d="M226.905 233.438C231.326 233.1 239.605 232.944 244.162 232.879C245.1 232.864 246.014 233.169 246.756 233.743C247.497 234.317 248.02 235.126 248.241 236.037C249.119 239.683 250.332 246.013 250.182 252.719C250.161 253.684 249.762 254.602 249.069 255.274C248.376 255.946 247.446 256.318 246.481 256.31L229.657 256.129C228.658 256.117 227.7 255.736 226.965 255.059C226.231 254.383 225.772 253.459 225.679 252.465L224.2 236.649C224.164 236.26 224.205 235.867 224.321 235.495C224.438 235.122 224.628 234.776 224.88 234.477C225.131 234.178 225.44 233.932 225.788 233.754C226.136 233.576 226.515 233.469 226.905 233.438Z" fill="#1E4B9B"/>
<g opacity="0.6">
<path opacity="0.6" d="M257.889 239.928C256.552 239.873 255.624 240.91 255.82 242.233L256.261 245.175C256.38 245.836 256.723 246.436 257.232 246.874C257.741 247.312 258.385 247.561 259.057 247.58H300.134C300.452 247.579 300.766 247.516 301.059 247.394C301.352 247.272 301.618 247.093 301.841 246.867C302.065 246.642 302.241 246.374 302.36 246.08C302.48 245.786 302.54 245.471 302.537 245.154L302.525 244.23C302.509 243.576 302.246 242.952 301.79 242.483C301.334 242.014 300.718 241.733 300.065 241.698L257.889 239.928Z" fill="white"/>
</g>
<g opacity="0.6">
<path opacity="0.6" d="M130.128 287.547C130.706 289.25 132.691 290.432 134.951 290.416L319.17 289.196C321.253 289.182 322.921 287.843 322.876 286.219C322.831 284.641 321.181 283.377 319.155 283.369L134.931 282.714C131.68 282.703 129.3 285.1 130.128 287.547Z" fill="white"/>
</g>
<g opacity="0.6">
<path opacity="0.6" d="M130.128 320.802C130.706 322.505 132.691 323.686 134.951 323.671L319.17 322.447C321.253 322.434 322.921 321.095 322.876 319.471C322.831 317.893 321.181 316.628 319.155 316.622L134.93 315.975C131.68 315.955 129.3 318.352 130.128 320.802Z" fill="white"/>
</g>
<g opacity="0.6">
<path opacity="0.6" d="M130.128 354.053C130.706 355.756 132.691 356.938 134.951 356.923L319.17 355.699C321.253 355.684 322.921 354.345 322.876 352.722C322.831 351.143 321.181 349.88 319.155 349.874L134.93 349.227C131.68 349.207 129.3 351.602 130.128 354.053Z" fill="white"/>
</g>
<g opacity="0.6">
<path opacity="0.6" d="M130.128 387.305C130.706 389.008 132.691 390.19 134.951 390.174L319.17 388.948C321.253 388.933 322.921 387.594 322.876 385.971C322.831 384.392 321.181 383.129 319.155 383.121L134.931 382.479C131.68 382.458 129.3 384.855 130.128 387.305Z" fill="white"/>
</g>
<path d="M233.678 37.5914C225.818 32.1251 218.983 32.2334 214.171 33.6518C212.043 34.2859 210.201 35.6379 208.958 37.4773C207.715 39.3168 207.149 41.53 207.355 43.7401L209.429 66.3816L234.121 68.5713C234.121 68.5713 249.095 48.3137 233.678 37.5914ZM222.82 55.8663C221.603 55.8663 220.412 55.5053 219.4 54.8289C218.387 54.1526 217.598 53.1913 217.132 52.0665C216.666 50.9418 216.544 49.7042 216.782 48.5102C217.019 47.3162 217.606 46.2194 218.467 45.3586C219.328 44.4978 220.425 43.9115 221.619 43.674C222.813 43.4365 224.051 43.5584 225.176 44.0243C226.302 44.4902 227.263 45.2791 227.94 46.2913C228.616 47.3036 228.977 48.4936 228.977 49.711C228.975 51.3421 228.325 52.9056 227.171 54.0582C226.017 55.2108 224.452 55.8582 222.82 55.8582V55.8663Z" fill="#1E4B9B"/>
<path d="M175.729 81.0146V69.6308C175.73 68.6987 175.919 67.7763 176.284 66.9185C176.648 66.0607 177.182 65.2849 177.852 64.6372C178.522 63.9895 179.316 63.4832 180.186 63.1484C181.057 62.8135 181.985 62.6569 182.917 62.6879L261.418 65.3774C263.1 65.4352 264.699 66.1177 265.904 67.2916C267.108 68.4655 267.832 70.0463 267.933 71.7251L268.589 82.6642L175.729 81.0146Z" fill="#1E4B9B"/>
<path d="M143.741 83.8901C143.832 81.9921 144.651 80.2019 146.026 78.8909C147.402 77.5798 149.23 76.8485 151.131 76.8486H288.418C290.808 76.8485 293.122 77.692 294.951 79.2305C296.78 80.769 298.008 82.9037 298.416 85.2583L298.533 85.9295C298.75 87.1808 298.69 88.4643 298.358 89.6901C298.027 90.916 297.431 92.0546 296.613 93.0261C295.795 93.9976 294.775 94.7786 293.623 95.3144C292.471 95.8502 291.216 96.1278 289.946 96.1278H149.097C148.33 96.1288 147.571 95.9738 146.865 95.6723C146.16 95.3708 145.523 94.9291 144.993 94.374C144.464 93.8189 144.053 93.162 143.785 92.4432C143.517 91.7244 143.398 90.9587 143.436 90.1925L143.741 83.8901Z" fill="#91B3FA"/>
<path d="M203.332 394.817H5.96764V440.802H203.332V394.817Z" fill="#4E51FD"/>
<path d="M1.85873 420.199H206.81V437.019C206.81 437.241 206.722 437.453 206.565 437.61C206.408 437.767 206.196 437.855 205.974 437.855H3.11082C2.77918 437.855 2.46112 437.723 2.22661 437.489C1.9921 437.254 1.86035 436.936 1.86035 436.605V420.199H1.85873Z" fill="#1E4B9B"/>
<path d="M1.85873 400.151H206.81V416.569C206.81 416.898 206.679 417.213 206.447 417.446C206.214 417.679 205.898 417.809 205.569 417.809H3.40686C2.99627 417.809 2.6025 417.646 2.31217 417.356C2.02184 417.066 1.85873 416.672 1.85873 416.262V400.151Z" fill="#1E4B9B"/>
<path d="M3.13668 393.53H205.509C205.853 393.53 206.182 393.666 206.424 393.909C206.667 394.151 206.803 394.48 206.803 394.824V400.151H1.8587V394.814C1.85785 394.646 1.89028 394.479 1.95412 394.323C2.01796 394.167 2.11196 394.026 2.23072 393.906C2.34947 393.787 2.49065 393.692 2.64612 393.628C2.80159 393.563 2.96831 393.53 3.13668 393.53Z" fill="#4E51FD"/>
<path d="M392.168 435.2C395.92 427.487 393.577 418.618 386.936 415.39C380.296 412.162 371.871 415.798 368.12 423.51C364.369 431.223 366.711 440.093 373.352 443.321C379.993 446.549 388.417 442.913 392.168 435.2Z" fill="#91B3FA"/>
<path d="M365.858 413.767L359.057 427.75C358.813 428.252 359.022 428.857 359.525 429.101L368.037 433.239C368.539 433.483 369.144 433.274 369.388 432.772L376.189 418.789C376.433 418.287 376.224 417.682 375.722 417.438L367.21 413.3C366.707 413.056 366.102 413.265 365.858 413.767Z" fill="#1E4B9B"/>
<path d="M367.479 412.075C366.257 418.335 363.478 423.927 359.251 428.894C356.967 431.58 353.303 432.784 349.658 432.051C314.82 425.058 241.802 379.942 170.893 340.528C166.193 337.916 162.945 334.953 165.159 330.4L170.05 320.346C172.25 315.818 177.517 318.368 182.459 320.399C257.468 351.206 337.023 378.062 364.334 402.91C366.955 405.294 368.123 408.767 367.479 412.075Z" fill="#91B3FA"/>
<path d="M181.422 310.07L164.82 344.204C164.707 344.434 164.508 344.611 164.265 344.695C164.023 344.779 163.757 344.763 163.526 344.652L154.767 340.393C154.537 340.281 154.36 340.081 154.276 339.839C154.192 339.596 154.208 339.331 154.319 339.1L170.922 304.976C171.034 304.745 171.233 304.568 171.476 304.484C171.718 304.399 171.984 304.415 172.216 304.526L180.974 308.784C181.203 308.897 181.378 309.095 181.461 309.335C181.545 309.576 181.531 309.84 181.422 310.07Z" fill="#142142"/>
<path d="M107.625 275.996L91.0224 310.13C90.9098 310.36 90.7104 310.537 90.4678 310.621C90.2253 310.705 89.9594 310.689 89.7283 310.578L80.9701 306.32C80.7395 306.207 80.5628 306.008 80.4789 305.765C80.3949 305.523 80.4104 305.257 80.522 305.026L97.1243 270.902C97.237 270.671 97.4364 270.495 97.6789 270.411C97.9214 270.327 98.1874 270.342 98.4185 270.454L107.177 274.711C107.405 274.823 107.58 275.021 107.664 275.262C107.748 275.502 107.734 275.766 107.625 275.996Z" fill="url(#paint3_linear)"/>
<path d="M115.616 241.189L63.1605 349.044L136.251 384.573L188.707 276.718L115.616 241.189Z" fill="#91B3FA"/>
<path d="M65.9275 343.352L59.3306 356.916L132.421 392.445L139.018 378.881L65.9275 343.352Z" fill="#142142"/>
<path d="M135.4 386.339L132.121 393.08C131.635 394.078 130.811 394.87 129.795 395.317C128.779 395.765 127.637 395.837 126.573 395.522C103.789 388.759 81.7385 378.218 60.5225 363.375C59.6234 362.745 58.9782 361.815 58.7027 360.752C58.4273 359.69 58.5397 358.564 59.0197 357.577L62.3117 350.807L135.4 386.339Z" fill="#91B3FA"/>
<path d="M142.775 376.172L140.042 381.791C139.984 381.911 139.903 382.018 139.804 382.106C139.704 382.194 139.589 382.262 139.463 382.305C139.338 382.349 139.205 382.367 139.072 382.359C138.94 382.351 138.81 382.317 138.691 382.259L62.1742 345.062C61.9334 344.945 61.7491 344.737 61.6618 344.483C61.5744 344.23 61.5912 343.953 61.7083 343.712L64.4406 338.092C64.4986 337.972 64.5797 337.866 64.679 337.777C64.7784 337.689 64.8943 337.621 65.0199 337.578C65.1455 337.535 65.2784 337.516 65.4111 337.524C65.5437 337.532 65.6735 337.566 65.793 337.625L142.31 374.821C142.55 374.939 142.735 375.147 142.822 375.4C142.909 375.653 142.893 375.931 142.775 376.172Z" fill="url(#paint4_linear)"/>
<path d="M142.339 377.073L140.478 380.894C140.426 381.002 140.353 381.099 140.263 381.179C140.173 381.259 140.068 381.32 139.954 381.36C139.84 381.399 139.72 381.416 139.6 381.408C139.48 381.401 139.362 381.37 139.254 381.318L62.5608 344.034C62.4527 343.981 62.356 343.908 62.2762 343.818C62.1964 343.728 62.1352 343.623 62.096 343.509C62.0568 343.395 62.0404 343.275 62.0477 343.155C62.055 343.035 62.0859 342.918 62.1386 342.809L63.9973 338.988C64.0498 338.88 64.1232 338.783 64.2132 338.703C64.3032 338.623 64.408 338.562 64.5218 338.522C64.6355 338.483 64.7559 338.466 64.876 338.474C64.9962 338.481 65.1137 338.512 65.2219 338.564L141.915 375.848C142.133 375.955 142.3 376.144 142.379 376.373C142.459 376.602 142.444 376.854 142.339 377.073Z" fill="url(#paint5_linear)"/>
<path d="M189.136 275.875L195.733 262.311L122.642 226.783L116.045 240.347L189.136 275.875Z" fill="#142142"/>
<path d="M192.751 268.424L196.03 261.682C196.514 260.684 196.629 259.546 196.353 258.471C196.078 257.396 195.43 256.454 194.525 255.812C175.134 242.065 153.224 231.242 128.446 223.725C127.395 223.407 126.265 223.473 125.259 223.913C124.253 224.352 123.436 225.135 122.956 226.122L119.662 232.892L192.751 268.424Z" fill="#91B3FA"/>
<path d="M189.31 280.503L192.044 274.884C192.102 274.764 192.136 274.635 192.144 274.502C192.152 274.37 192.134 274.237 192.09 274.111C192.047 273.986 191.979 273.87 191.891 273.771C191.803 273.672 191.696 273.591 191.576 273.533L115.06 236.337C114.819 236.22 114.541 236.203 114.287 236.291C114.034 236.378 113.826 236.563 113.709 236.804L110.973 242.425C110.856 242.667 110.839 242.944 110.927 243.198C111.014 243.451 111.198 243.66 111.439 243.777L187.956 280.974C188.076 281.033 188.206 281.067 188.339 281.075C188.472 281.083 188.605 281.065 188.731 281.021C188.857 280.977 188.973 280.909 189.072 280.82C189.172 280.731 189.252 280.624 189.31 280.503Z" fill="url(#paint6_linear)"/>
<path d="M189.755 279.606L191.615 275.783C191.721 275.564 191.735 275.313 191.656 275.083C191.576 274.854 191.409 274.665 191.191 274.558L114.49 237.274C114.272 237.169 114.02 237.154 113.79 237.234C113.561 237.313 113.372 237.48 113.266 237.698L111.407 241.52C111.354 241.628 111.323 241.745 111.316 241.865C111.309 241.986 111.326 242.106 111.365 242.22C111.404 242.333 111.466 242.438 111.546 242.528C111.626 242.618 111.722 242.691 111.831 242.744L188.524 280.028C188.632 280.082 188.75 280.114 188.871 280.122C188.992 280.13 189.113 280.114 189.228 280.074C189.342 280.035 189.448 279.973 189.538 279.893C189.629 279.813 189.702 279.715 189.755 279.606Z" fill="url(#paint7_linear)"/>
</g>
<defs>
<linearGradient id="paint0_linear" x1="177596" y1="116784" x2="223639" y2="116784" gradientUnits="userSpaceOnUse">
<stop stop-color="#DAE3FE"/>
<stop offset="1" stop-color="#E9EFFD"/>
</linearGradient>
<linearGradient id="paint1_linear" x1="56.9039" y1="334.366" x2="283.71" y2="478.493" gradientUnits="userSpaceOnUse">
<stop stop-color="#A737D5"/>
<stop offset="1" stop-color="#EF497A"/>
</linearGradient>
<linearGradient id="paint2_linear" x1="17696.1" y1="31476" x2="48583" y2="58880.6" gradientUnits="userSpaceOnUse">
<stop stop-color="#A737D5"/>
<stop offset="1" stop-color="#EF497A"/>
</linearGradient>
<linearGradient id="paint3_linear" x1="41236.2" y1="88039.1" x2="14509.7" y2="80605.3" gradientUnits="userSpaceOnUse">
<stop stop-color="#4F52FF"/>
<stop offset="1" stop-color="#4042E2"/>
</linearGradient>
<linearGradient id="paint4_linear" x1="24544.4" y1="62381.7" x2="28645.5" y2="81302.1" gradientUnits="userSpaceOnUse">
<stop stop-color="#09005D"/>
<stop offset="1" stop-color="#1A0F91"/>
</linearGradient>
<linearGradient id="paint5_linear" x1="32069.3" y1="124454" x2="37518.1" y2="95446" gradientUnits="userSpaceOnUse">
<stop stop-color="#4F52FF"/>
<stop offset="1" stop-color="#4042E2"/>
</linearGradient>
<linearGradient id="paint6_linear" x1="69726.4" y1="44735.3" x2="70973.8" y2="61886.9" gradientUnits="userSpaceOnUse">
<stop stop-color="#09005D"/>
<stop offset="1" stop-color="#1A0F91"/>
</linearGradient>
<linearGradient id="paint7_linear" x1="113087" y1="40417.6" x2="103899" y2="64769.9" gradientUnits="userSpaceOnUse">
<stop stop-color="#4F52FF"/>
<stop offset="1" stop-color="#4042E2"/>
</linearGradient>
<clipPath id="clip0">
<rect width="445" height="445" fill="white"/>
</clipPath>
</defs>
</svg>
