<svg width="517" height="283" viewBox="0 0 517 283" fill="none" xmlns="http://www.w3.org/2000/svg">
<path d="M17.1125 286.862C17.1125 286.862 -26.6857 218.912 25.8564 145.772C106.889 32.9687 213.485 104.235 254.937 38.0168C311.466 -52.2842 525.466 11.1849 489.737 150.117C472.447 217.348 542.356 219.794 506.734 287L17.1125 286.862Z" fill="#D9E9FE"/>
<path d="M382.277 38.6866H134.723C126.592 38.6866 120 45.2937 120 53.4439V220.011C120 228.161 126.592 234.768 134.723 234.768H382.277C390.408 234.768 397 228.161 397 220.011V53.4439C397 45.2937 390.408 38.6866 382.277 38.6866Z" fill="#1E4B9B"/>
<path d="M375.312 44.7051H141.304C133.173 44.7051 126.581 51.3122 126.581 59.4624V214.004C126.581 222.155 133.173 228.762 141.304 228.762H375.312C383.443 228.762 390.035 222.155 390.035 214.004V59.4624C390.035 51.3122 383.443 44.7051 375.312 44.7051Z" fill="#142142"/>
<path d="M279.228 234.768H237.76V283H279.228V234.768Z" fill="#0D182D"/>
<path d="M279.228 248.081H237.76V283H279.228V248.081Z" fill="#142142"/>
<path d="M166.927 206.559V0.5H347.467V206.559H166.927Z" fill="white" stroke="#D9E9FE"/>
<path d="M172.84 40.6487V8.88324H204.507C204.509 13.0532 203.691 17.1825 202.101 21.0357C200.51 24.8888 198.178 28.3901 195.237 31.3398C192.297 34.2895 188.805 36.6298 184.962 38.227C181.119 39.8242 177 40.6471 172.84 40.6487Z" fill="#D9E9FE"/>
<path d="M340.582 40.6607C336.42 40.6607 332.299 39.8391 328.454 38.2427C324.609 36.6463 321.115 34.3065 318.172 31.3568C315.229 28.4071 312.895 24.9053 311.302 21.0514C309.71 17.1974 308.89 13.0668 308.89 8.89528L340.582 8.89528V40.6607Z" fill="#D9E9FE"/>
<path d="M340.582 201.005H308.89C308.888 196.832 309.707 192.7 311.299 188.845C312.891 184.989 315.225 181.486 318.168 178.535C321.111 175.584 324.605 173.243 328.451 171.646C332.297 170.049 336.419 169.227 340.582 169.227V201.005Z" fill="#D9E9FE"/>
<path d="M275.205 193.048L269.897 179.687L262.871 182.504L268.179 195.853L270.977 192.627L275.205 193.048Z" fill="#D35352"/>
<path d="M243.717 193.048L249.025 179.687L256.062 182.504L250.742 195.853L247.956 192.627L243.717 193.048Z" fill="#D35352"/>
<path d="M172.84 169.239V201.017H204.507C204.511 196.846 203.694 192.715 202.104 188.86C200.514 185.006 198.182 181.503 195.241 178.552C192.301 175.601 188.809 173.26 184.965 171.662C181.121 170.064 177.001 169.241 172.84 169.239Z" fill="#D9E9FE"/>
<path d="M259.461 184.177C268.156 184.177 275.205 177.112 275.205 168.396C275.205 159.681 268.156 152.616 259.461 152.616C250.766 152.616 243.717 159.681 243.717 168.396C243.717 177.112 250.766 184.177 259.461 184.177Z" fill="#EBB04B"/>
<path d="M284.908 35.1598H230.483C229.81 35.1598 229.164 34.8926 228.687 34.4167C228.21 33.9407 227.94 33.2947 227.937 32.62C227.943 31.9474 228.214 31.3045 228.691 30.8312C229.168 30.3578 229.812 30.0923 230.483 30.0923H284.86C285.194 30.0923 285.525 30.1583 285.834 30.2865C286.143 30.4148 286.424 30.6027 286.66 30.8397C286.896 31.0767 287.084 31.358 287.212 31.6676C287.34 31.9772 287.406 32.309 287.406 32.6441C287.396 33.3064 287.131 33.9391 286.665 34.4085C286.198 34.878 285.569 35.1474 284.908 35.1598Z" fill="#B3B3B3"/>
<path d="M284.908 52.6735H230.483C230.149 52.6751 229.818 52.6106 229.51 52.4837C229.201 52.3567 228.92 52.1699 228.683 51.9339C228.447 51.6979 228.259 51.4174 228.131 51.1085C228.003 50.7995 227.937 50.4683 227.937 50.1337C227.937 49.457 228.205 48.8079 228.683 48.3293C229.16 47.8508 229.808 47.5819 230.483 47.5819H284.86C285.194 47.5819 285.525 47.6479 285.834 47.7762C286.143 47.9044 286.424 48.0924 286.66 48.3293C286.896 48.5663 287.084 48.8476 287.212 49.1572C287.34 49.4668 287.406 49.7986 287.406 50.1337C287.406 50.8011 287.144 51.4417 286.676 51.917C286.209 52.3923 285.574 52.664 284.908 52.6735Z" fill="#B3B3B3"/>
<path d="M218.822 141.482H202.55C201.875 141.482 201.227 141.213 200.75 140.735C200.272 140.256 200.004 139.607 200.004 138.93C200.004 138.253 200.272 137.604 200.75 137.126C201.227 136.647 201.875 136.378 202.55 136.378H218.822C219.497 136.378 220.145 136.647 220.622 137.126C221.1 137.604 221.368 138.253 221.368 138.93C221.368 139.607 221.1 140.256 220.622 140.735C220.145 141.213 219.497 141.482 218.822 141.482Z" fill="#B3B3B3"/>
<path d="M218.822 149.872H202.55C201.875 149.872 201.227 149.603 200.75 149.124C200.272 148.646 200.004 147.997 200.004 147.32C200.004 146.643 200.272 145.994 200.75 145.515C201.227 145.037 201.875 144.768 202.55 144.768H218.822C219.497 144.768 220.145 145.037 220.622 145.515C221.1 145.994 221.368 146.643 221.368 147.32C221.368 147.997 221.1 148.646 220.622 149.124C220.145 149.603 219.497 149.872 218.822 149.872Z" fill="#B3B3B3"/>
<path d="M317.02 141.482H300.748C300.073 141.482 299.425 141.213 298.948 140.735C298.47 140.256 298.202 139.607 298.202 138.93C298.202 138.253 298.47 137.604 298.948 137.126C299.425 136.647 300.073 136.378 300.748 136.378H317.02C317.695 136.378 318.343 136.647 318.82 137.126C319.298 137.604 319.566 138.253 319.566 138.93C319.566 139.607 319.298 140.256 318.82 140.735C318.343 141.213 317.695 141.482 317.02 141.482Z" fill="#B3B3B3"/>
<path d="M317.02 149.872H300.748C300.073 149.872 299.425 149.603 298.948 149.124C298.47 148.646 298.202 147.997 298.202 147.32C298.202 146.643 298.47 145.994 298.948 145.515C299.425 145.037 300.073 144.768 300.748 144.768H317.02C317.695 144.768 318.343 145.037 318.82 145.515C319.298 145.994 319.566 146.643 319.566 147.32C319.566 147.997 319.298 148.646 318.82 149.124C318.343 149.603 317.695 149.872 317.02 149.872Z" fill="#B3B3B3"/>
<path d="M311.123 99.112H206.069C205.393 99.112 204.746 98.8431 204.268 98.3645C203.791 97.886 203.523 97.2369 203.523 96.5601C203.523 95.8833 203.791 95.2343 204.268 94.7557C204.746 94.2772 205.393 94.0083 206.069 94.0083H311.123C311.799 94.0083 312.446 94.2772 312.924 94.7557C313.401 95.2343 313.669 95.8833 313.669 96.5601C313.669 97.2369 313.401 97.886 312.924 98.3645C312.446 98.8431 311.799 99.112 311.123 99.112Z" fill="#B3B3B3"/>
<path d="M311.123 89.675H206.069C205.393 89.675 204.746 89.4062 204.268 88.9276C203.791 88.4491 203.523 87.8 203.523 87.1232C203.523 86.4464 203.791 85.7974 204.268 85.3188C204.746 84.8403 205.393 84.5714 206.069 84.5714H311.123C311.799 84.5714 312.446 84.8403 312.924 85.3188C313.401 85.7974 313.669 86.4464 313.669 87.1232C313.669 87.8 313.401 88.4491 312.924 88.9276C312.446 89.4062 311.799 89.675 311.123 89.675Z" fill="#B3B3B3"/>
<path d="M311.124 108.621H206.069C205.735 108.623 205.404 108.558 205.095 108.431C204.786 108.304 204.506 108.118 204.269 107.882C204.033 107.646 203.845 107.365 203.717 107.056C203.589 106.747 203.523 106.416 203.523 106.081C203.521 105.745 203.586 105.412 203.713 105.101C203.84 104.79 204.028 104.507 204.264 104.269C204.501 104.031 204.782 103.842 205.092 103.713C205.401 103.584 205.733 103.518 206.069 103.518H311.124C311.458 103.518 311.789 103.584 312.098 103.712C312.407 103.84 312.687 104.028 312.924 104.265C313.16 104.502 313.348 104.783 313.476 105.093C313.604 105.402 313.669 105.734 313.669 106.069C313.671 106.405 313.606 106.737 313.479 107.048C313.351 107.358 313.164 107.64 312.927 107.877C312.691 108.115 312.409 108.302 312.1 108.43C311.79 108.558 311.458 108.623 311.124 108.621Z" fill="#B3B3B3"/>
<path d="M390.035 273.202H128.995V283H390.035V273.202Z" fill="#1E4B9B"/>
<path d="M147.777 269.675H135.78V273.202H147.777V269.675Z" fill="#0E1118"/>
<path d="M162.644 269.675H150.647V273.202H162.644V269.675Z" fill="#0E1118"/>
<path d="M177.511 269.675H165.514V273.202H177.511V269.675Z" fill="#0E1118"/>
<path d="M192.378 269.675H180.381V273.202H192.378V269.675Z" fill="#0E1118"/>
<path d="M207.246 269.675H195.249V273.202H207.246V269.675Z" fill="#0E1118"/>
<path d="M222.113 269.675H210.116V273.202H222.113V269.675Z" fill="#0E1118"/>
<path d="M236.98 269.675H224.983V273.202H236.98V269.675Z" fill="#0E1118"/>
<path d="M251.847 269.675H239.85V273.202H251.847V269.675Z" fill="#0E1118"/>
<path d="M266.714 269.675H254.717V273.202H266.714V269.675Z" fill="#0E1118"/>
<path d="M281.581 269.675H269.584V273.202H281.581V269.675Z" fill="#0E1118"/>
<path d="M296.448 269.675H284.451V273.202H296.448V269.675Z" fill="#0E1118"/>
<path d="M311.316 269.675H299.319V273.202H311.316V269.675Z" fill="#0E1118"/>
<path d="M326.183 269.675H314.186V273.202H326.183V269.675Z" fill="#0E1118"/>
<path d="M341.05 269.675H329.053V273.202H341.05V269.675Z" fill="#0E1118"/>
<path d="M355.917 269.675H343.92V273.202H355.917V269.675Z" fill="#0E1118"/>
<path d="M370.784 269.675H358.787V273.202H370.784V269.675Z" fill="#0E1118"/>
<path d="M385.652 269.675H373.654V273.202H385.652V269.675Z" fill="#0E1118"/>
</svg>
