<svg width="246" height="52" viewBox="0 0 246 52" fill="none" xmlns="http://www.w3.org/2000/svg">
<path d="M15.9645 34.7981H4.80872C4.89012 35.0016 4.94303 35.1684 5.01222 35.3231C6.4384 38.4715 8.57054 41.2491 11.2433 43.4406C11.3606 43.5243 11.4547 43.6363 11.517 43.7661C11.5793 43.896 11.6076 44.0396 11.5994 44.1834C11.5832 45.1826 11.5994 46.1797 11.5994 47.305C9.50201 45.945 7.62101 44.2774 6.01953 42.358C3.44641 39.3257 1.62402 35.7297 0.700109 31.8616H1.44695H15.2705C15.9604 31.8616 15.9604 31.8616 15.9584 31.1697C15.9563 30.4778 15.9584 29.731 15.9584 28.9475H0.0692671C0.0428124 27.3847 -0.0284117 25.8808 0.0122878 24.3831C0.0387424 23.388 0.248345 22.399 0.329744 21.4039C0.364338 20.9969 0.557661 20.944 0.899537 20.944C4.24504 20.944 7.59053 20.944 10.936 20.944H15.5107C15.6389 20.944 15.765 20.9236 15.9177 20.9094V18.0421H1.16001C2.81241 13.0238 5.59219 8.89488 9.63772 5.65316C14.0034 2.15572 19.0027 0.27133 24.6355 0V18.0197H18.8643C18.8643 18.9599 18.8643 19.8512 18.8826 20.7486C18.8826 20.8219 19.1492 20.9521 19.2896 20.9521C20.8301 20.9663 22.3726 20.9521 23.9131 20.9521H24.6335V28.9455H18.8602C18.8602 29.8694 18.8439 30.7342 18.8806 31.591C18.8806 31.6846 19.1736 31.8433 19.3323 31.8453C20.8728 31.8636 22.4153 31.8575 23.9558 31.8575H24.6335V51.55C23.8988 51.4828 23.1601 51.3953 22.4174 51.3465C21.9107 51.318 21.756 51.1287 21.758 50.5956C21.7824 45.4776 21.758 40.3597 21.7824 35.2397C21.7824 34.8327 21.6644 34.7248 21.2818 34.7431C20.6591 34.7716 20.0344 34.7798 19.4137 34.7431C18.9884 34.7228 18.848 34.8428 18.85 35.2865C18.8684 38.5689 18.8602 41.8493 18.8602 45.1296C18.8602 46.8214 18.8602 48.5111 18.8602 50.1988C18.8602 50.3107 18.8399 50.4226 18.8216 50.6424C17.8875 50.3127 16.9901 50.0095 16.115 49.6676C16.0174 49.629 15.9645 49.3644 15.9645 49.2037C15.9645 44.7267 15.9645 40.2498 15.9645 35.7728V34.7981ZM21.7743 3.29259C17.4972 4.04125 13.5266 6.0068 10.3378 8.95389C8.4043 10.7082 6.79573 12.79 5.58608 15.1036C5.78958 15.1199 5.89133 15.1341 5.99308 15.1341C11.1049 15.1341 16.2168 15.1341 21.3286 15.1341C21.7153 15.1341 21.7865 14.9917 21.7865 14.6437C21.7743 11.6787 21.7865 8.71173 21.7865 5.74473L21.7743 3.29259ZM21.7743 26.0172C21.7743 25.4494 21.7438 24.9407 21.7743 24.438C21.8109 23.9801 21.6563 23.858 21.2025 23.8601C16.809 23.8723 12.4155 23.8601 8.02398 23.8601C6.49775 23.8601 4.97152 23.8601 3.44936 23.8601C3.29877 23.8601 3.02812 23.9944 3.01795 24.09C2.94469 24.7148 2.93044 25.3456 2.89585 26.007L21.7743 26.0172Z" fill="white"/>
<path d="M50.2965 18.0176H36.3569V20.948H36.8779C41.4376 20.948 45.9966 20.948 50.555 20.948C50.9416 20.948 51.0881 21.0538 51.1512 21.4486C51.5602 23.8449 51.6192 26.288 51.3262 28.7012C51.3262 28.7643 51.2977 28.8254 51.2774 28.9169H33.4164V23.8967H30.5247V28.9088H27.6208C27.6208 28.7684 27.5923 28.6443 27.5923 28.5181C27.5923 26.2043 27.5923 23.8906 27.5781 21.5788C27.5781 21.0986 27.6757 20.9276 28.1886 20.9398C29.7453 20.9765 31.3041 20.9521 32.869 20.9398C33.0298 20.9398 33.1885 20.9256 33.3757 20.9154V18.04H27.6228V0.0345459C28.5426 0.162749 29.4136 0.268568 30.2683 0.421191C30.368 0.439506 30.486 0.718297 30.486 0.879061C30.5003 2.20586 30.486 3.5347 30.486 4.86354C30.486 8.09508 30.486 11.3266 30.4718 14.5582C30.4718 15.0018 30.5817 15.1687 31.0436 15.1381C31.8088 15.0995 32.578 15.1381 33.39 15.1381V1.14768C37.3542 2.39449 40.9593 4.57889 43.8996 7.51564C46.8399 10.4524 49.0287 14.0549 50.2802 18.0176H50.2965ZM45.8766 15.0954C43.7188 11.0437 40.4043 7.72568 36.3549 5.56357C36.3353 5.6556 36.321 5.74868 36.3122 5.84236C36.3122 8.76052 36.3244 11.6787 36.3122 14.5928C36.3122 15.0343 36.4383 15.1442 36.8657 15.1422C39.7004 15.1239 42.5351 15.1422 45.3699 15.1422C45.5021 15.1341 45.6425 15.1137 45.8766 15.0954ZM36.3122 23.8621C36.3122 24.4481 36.3366 24.9711 36.3122 25.49C36.2857 25.9154 36.4221 26.0517 36.8616 26.0497C40.6161 26.0334 44.3707 26.0375 48.1252 26.0334C48.2636 26.0334 48.402 26.009 48.581 25.9907C48.5526 25.4371 48.4976 24.9304 48.5057 24.4258C48.5057 23.9821 48.3592 23.8478 47.9075 23.8499C44.8428 23.8702 41.7761 23.8621 38.7094 23.8621H36.3122Z" fill="white"/>
<path d="M33.4042 50.3901V40.5917C32.4986 40.5917 31.6358 40.5774 30.775 40.612C30.6753 40.612 30.5125 40.905 30.5084 41.0638C30.486 42.6226 30.4901 44.1814 30.4881 45.7442C30.4881 47.3356 30.4718 48.9269 30.4982 50.5183C30.4982 50.9843 30.427 51.2366 29.8878 51.2671C29.143 51.3099 28.4043 51.434 27.6167 51.5296V37.7101H33.3737V34.7676H32.6899C31.1474 34.7676 29.6069 34.7553 28.0644 34.7818C27.6574 34.7818 27.5699 34.6292 27.5821 34.267C27.6045 33.628 27.6167 32.987 27.5821 32.348C27.5618 31.941 27.7185 31.8575 28.0929 31.8575C32.0774 31.8698 36.0619 31.8698 40.0464 31.8575H49.8855H50.8256C50.5061 32.875 50.2436 33.7908 49.918 34.6943C49.2078 36.6001 48.2806 38.4178 47.1545 40.1114C46.892 40.5184 46.5807 40.6079 46.137 40.6059C43.0052 40.5937 39.8734 40.6059 36.7416 40.6059C36.6154 40.6059 36.4892 40.6201 36.3346 40.6303V46.0372C37.2483 45.4614 38.0887 44.9648 38.8905 44.4093C39.501 43.984 40.0789 43.4874 40.6772 43.0275C40.8034 42.9319 40.9499 42.7996 41.0842 42.7976C42.3581 42.7793 43.632 42.7854 45.0544 42.7854C41.8046 46.3974 37.9992 48.931 33.4042 50.3901ZM36.3162 37.6308C36.3697 37.6516 36.4249 37.668 36.4811 37.6796C39.2975 37.6796 42.1146 37.6796 44.9323 37.6796C45.0463 37.6796 45.2233 37.6348 45.2661 37.5534C45.7484 36.6723 46.2123 35.781 46.7272 34.8022C46.4199 34.7859 46.2612 34.7696 46.1045 34.7676H36.8189C36.5747 34.7676 36.3081 34.7248 36.3142 35.1155C36.3244 35.9478 36.3162 36.7822 36.3162 37.6308Z" fill="white"/>
<path d="M74.4029 27.409H64.9504V34.4907H76.0003V37.6836H60.9415V14.666H75.8803V17.8915H64.9504V24.2467H74.4029V27.409Z" fill="white"/>
<path d="M87.1764 22.9809L92.0135 14.666H96.6288L89.6733 26.0802L96.7957 37.6796H92.1234L87.1764 29.2425L82.2131 37.6836H77.5652L84.6876 26.0843L77.7219 14.666H82.3392L87.1764 22.9809Z" fill="white"/>
<path d="M116.911 30.1909C116.679 32.6451 115.773 34.56 114.193 35.9356C112.612 37.3113 110.509 37.9991 107.884 37.9991C106.178 38.035 104.497 37.5824 103.039 36.6947C101.622 35.8023 100.498 34.5139 99.8054 32.989C99.0484 31.3854 98.6536 29.5254 98.6211 27.4091V25.2581C98.6211 23.0875 99.0057 21.1746 99.7749 19.5195C100.475 17.9446 101.628 16.6131 103.086 15.6937C104.587 14.7811 106.317 14.3152 108.074 14.3506C110.613 14.3506 112.658 15.0385 114.207 16.4141C115.756 17.7897 116.658 19.7365 116.911 22.2545H112.927C112.738 20.6007 112.256 19.4075 111.48 18.675C110.704 17.9424 109.569 17.5761 108.074 17.5761C106.336 17.5761 105 18.2117 104.067 19.4828C103.133 20.754 102.658 22.6181 102.642 25.075V27.1099C102.642 29.598 103.087 31.4973 103.977 32.8079C104.867 34.1184 106.171 34.7723 107.89 34.7696C109.461 34.7696 110.642 34.4168 111.431 33.7114C112.221 33.0059 112.721 31.8311 112.933 30.1868L116.911 30.1909Z" fill="white"/>
<path d="M138.757 37.6836H134.774V27.4721H124.484V37.6836H120.483V14.666H124.484V24.2467H134.774V14.666H138.757V37.6836Z" fill="white"/>
<path d="M156.652 32.3235H147.739L145.873 37.6836H141.714L150.407 14.666H153.997L162.707 37.6836H158.525L156.652 32.3235ZM148.859 29.1001H155.529L152.194 19.552L148.859 29.1001Z" fill="white"/>
<path d="M183.573 37.6836H179.574L169.31 21.3529V37.6836H165.315V14.666H169.31L179.601 31.0598V14.666H183.569L183.573 37.6836Z" fill="white"/>
<path d="M205.94 34.6963C205.042 35.8282 203.843 36.6826 202.48 37.1607C200.869 37.743 199.166 38.0271 197.454 37.9991C195.659 38.0339 193.888 37.5802 192.332 36.6865C190.837 35.8049 189.64 34.4977 188.893 32.932C188.087 31.304 187.668 29.4047 187.637 27.2341V25.4372C187.637 21.9574 188.469 19.2441 190.134 17.2973C191.799 15.3505 194.122 14.373 197.106 14.3649C199.666 14.3649 201.701 14.9998 203.211 16.2696C204.721 17.5394 205.627 19.3655 205.929 21.7478H202.006C201.562 18.9666 199.957 17.5761 197.189 17.5761C195.396 17.5761 194.034 18.2205 193.103 19.5093C192.172 20.7981 191.69 22.6913 191.656 25.1889V26.9573C191.656 29.4427 192.18 31.3718 193.229 32.7448C194.278 34.1177 195.733 34.8021 197.596 34.7981C199.639 34.7981 201.094 34.3341 201.959 33.4061V28.9088H197.216V25.8747H205.94V34.6963Z" fill="white"/>
<path d="M223.79 27.409H214.336V34.4907H225.386V37.6836H210.327V14.666H225.272V17.8915H214.332V24.2467H223.786L223.79 27.409Z" fill="white"/>
<path d="M237.099 28.8315H232.642V37.6836H228.642V14.666H236.737C239.393 14.666 241.442 15.2623 242.884 16.4548C244.327 17.6473 245.049 19.3716 245.052 21.6277C245.052 23.1675 244.68 24.4563 243.937 25.4941C243.147 26.5693 242.071 27.4001 240.831 27.8913L246 37.4761V37.6796H241.727L237.099 28.8315ZM232.642 25.606H236.751C238.1 25.606 239.154 25.2669 239.913 24.5886C240.673 23.9102 241.052 22.9802 241.051 21.7986C241.051 20.5654 240.701 19.6117 240.001 18.9374C239.301 18.2632 238.258 17.9145 236.871 17.8915H232.651L232.642 25.606Z" fill="white"/>
</svg>
