<svg width="447" height="364" viewBox="0 0 447 364" fill="none" xmlns="http://www.w3.org/2000/svg">
<path d="M4.67391 315.848C7.2245 315.516 9.64259 315.333 12.2263 315.167C14.81 315.001 17.344 314.869 19.9609 314.752C22.5777 314.636 25.1283 314.669 27.7617 314.752C30.3951 314.835 33.0285 314.852 35.7116 314.952C37.2684 314.952 37.8812 312.578 36.3078 312.512C25.8812 312.001 15.4305 312.323 5.05484 313.474C3.59736 313.607 3.19987 316.047 4.67391 315.848Z" fill="#A0C0EF"/>
<path d="M27.2483 281.805C30.7477 292.224 33.4279 302.902 35.2644 313.74C35.5294 315.25 37.8978 314.354 37.6328 312.844C37.169 310.221 36.6556 307.565 36.1091 304.893C35.5625 302.221 35.0159 299.449 34.2872 296.843C33.5585 294.237 32.8629 291.498 32.101 288.793C31.3391 286.087 30.5276 283.332 29.5835 280.709C28.9045 279.132 26.6355 280.261 27.2483 281.805Z" fill="#A0C0EF"/>
<path d="M80.2474 165.516C74.2035 173.815 69.0882 182.754 64.9936 192.173C64.3642 193.617 66.8154 194.115 67.4282 192.704C71.5034 183.367 76.5791 174.501 82.5662 166.263C83.4274 165.118 81.0756 164.371 80.2474 165.516Z" fill="#A0C0EF"/>
<path d="M368.331 269.953C370.77 275.357 372.297 281.129 372.853 287.033C373.157 290.038 373.229 293.063 373.068 296.079C372.98 299.172 372.687 302.255 372.19 305.308C371.793 307.715 375.304 307.731 375.702 305.308C375.9 304.03 376.082 302.735 376.215 301.457C376.347 300.179 376.447 298.884 376.563 297.623C376.767 295.094 376.822 292.556 376.728 290.021C376.542 284.965 375.753 279.95 374.376 275.082C373.648 272.426 372.718 269.829 371.594 267.314C371.213 266.451 369.855 266.501 369.043 267.132C368.601 267.433 368.284 267.887 368.152 268.407C368.021 268.927 368.085 269.477 368.331 269.953Z" fill="#8FB5F2"/>
<path d="M202.51 109.413C203.156 111.638 203.785 113.862 204.431 116.053C205.077 118.244 205.64 120.584 206.17 122.842C206.7 125.099 207.197 127.39 207.661 129.664C208.125 131.938 208.489 134.212 208.969 136.535C209.864 141.166 210.626 145.797 211.122 150.428L211.487 153.897L211.917 157.4C212.182 159.74 212.398 162.08 212.563 164.404C212.762 167.06 212.895 169.699 212.961 172.338C213.027 174.977 213.259 177.65 213.309 180.305C213.348 180.746 213.561 181.152 213.899 181.435C214.238 181.719 214.675 181.855 215.114 181.816C215.553 181.776 215.959 181.563 216.241 181.224C216.524 180.885 216.661 180.447 216.621 180.007C216.621 177.616 216.389 175.21 216.339 172.819C216.29 170.429 216.174 168.056 216.008 165.666C215.843 163.275 215.644 160.885 215.379 158.495L214.981 154.91L214.716 151.325C214.197 146.577 213.502 141.825 212.63 137.066L212.298 135.274L212 133.514L211.387 129.996C210.94 127.639 210.46 125.298 209.913 122.941C209.367 120.584 208.688 117.746 207.976 115.173C207.263 112.6 206.667 110.077 205.922 107.538C205.177 104.998 201.848 107.04 202.51 109.413Z" fill="#8FB5F2"/>
<path d="M188.068 185.866C192.71 189.544 196.716 193.963 199.926 198.945C201.566 201.479 203.017 204.131 204.266 206.879C205.594 209.675 206.745 212.552 207.711 215.494C208.472 217.818 211.603 216.208 210.841 213.834C210.443 212.606 209.996 211.378 209.532 210.166L208.075 206.614C207.105 204.272 205.999 201.988 204.763 199.775C202.282 195.402 199.291 191.339 195.852 187.675C193.994 185.648 191.978 183.772 189.823 182.065C189.078 181.484 187.902 182.065 187.471 183.077C187.219 183.536 187.14 184.071 187.25 184.583C187.359 185.096 187.65 185.551 188.068 185.866Z" fill="#8FB5F2"/>
<path d="M263.989 132.319C262.002 133.149 259.948 133.979 258.027 135.008C256.105 136.037 254.217 137.066 252.346 138.195C248.533 140.514 244.86 143.058 241.348 145.814C237.864 148.733 234.546 151.848 231.411 155.142L229.043 157.698C228.264 158.561 227.502 159.458 226.807 160.371C225.382 162.18 223.991 164.055 222.633 165.981C221.275 167.906 219.668 170.313 218.261 172.62L217.217 174.28L216.29 175.94C215.677 177.102 215.081 178.297 214.484 179.492C213.391 181.716 216.356 183.409 217.449 181.152C218.542 178.894 219.536 177.052 220.629 175.077C221.722 173.102 223.097 171.193 224.372 169.317C225.647 167.441 226.989 165.632 228.347 163.856C229.674 162.067 231.095 160.349 232.604 158.711C238.415 152.229 245.105 146.597 252.478 141.98C254.532 140.701 256.602 139.506 258.706 138.411C260.782 137.281 262.922 136.272 265.115 135.39C265.454 135.195 265.712 134.886 265.845 134.518C265.979 134.15 265.978 133.746 265.843 133.379C265.708 133.012 265.448 132.704 265.109 132.51C264.77 132.316 264.373 132.248 263.989 132.319Z" fill="#8FB5F2"/>
<path d="M238.251 192.124C235.908 192.626 233.605 193.303 231.361 194.149C229.144 195.019 227 196.068 224.952 197.286C220.693 199.851 216.832 203.027 213.491 206.714C211.599 208.829 209.934 211.138 208.522 213.602C207.263 215.677 209.93 217.967 211.189 215.892C212.745 213.31 214.541 210.881 216.555 208.639C218.586 206.488 220.803 204.522 223.18 202.763C227.731 199.379 232.929 196.972 238.45 195.692C238.915 195.635 239.343 195.406 239.649 195.05C239.955 194.694 240.118 194.236 240.106 193.767C239.974 192.904 239.245 191.924 238.251 192.124Z" fill="#8FB5F2"/>
<path d="M41.9058 285.772C44.8678 285.85 47.8143 286.228 50.7004 286.9C53.5996 287.552 56.4204 288.515 59.114 289.772C61.8398 291.044 64.4357 292.578 66.8651 294.353C69.3037 296.197 71.5659 298.264 73.6225 300.528C75.2788 302.337 77.8128 299.665 76.1566 297.839C74.4206 295.894 72.544 294.08 70.542 292.411C68.5307 290.838 66.4048 289.417 64.1821 288.162C63.089 287.531 61.9793 286.967 60.8696 286.502C59.7599 286.037 58.5509 285.506 57.3584 285.075C55.0113 284.231 52.6026 283.571 50.1538 283.099C47.3634 282.57 44.5305 282.298 41.6905 282.286C41.2221 282.336 40.7903 282.563 40.4827 282.921C40.1751 283.278 40.0148 283.74 40.0343 284.211C40.0922 284.66 40.3172 285.07 40.6644 285.36C41.0115 285.649 41.455 285.796 41.9058 285.772Z" fill="#8FB5F2"/>
<path d="M91.692 263.347C88.0902 267.111 84.9386 271.284 82.3012 275.779C79.6508 280.299 77.4909 285.09 75.8584 290.071C74.9279 292.817 74.181 295.623 73.6225 298.469C73.1588 300.826 76.6866 301.905 77.1834 299.498C79.5693 287.21 85.4073 275.86 94.0107 266.783C94.4017 266.424 94.6493 265.935 94.7071 265.407C94.765 264.878 94.6294 264.347 94.3254 263.911C93.7457 263.065 92.3876 262.534 91.692 263.347Z" fill="#8FB5F2"/>
<path d="M389.018 89.4123H383.916C383.407 87.878 382.792 86.3806 382.078 84.9307L385.672 81.3123C386.563 80.4198 387.27 79.3602 387.752 78.1939C388.234 77.0277 388.482 75.7776 388.482 74.5152C388.482 73.2528 388.234 72.0028 387.752 70.8365C387.27 69.6703 386.563 68.6106 385.672 67.7182L383.337 65.3612C382.446 64.4684 381.389 63.7601 380.225 63.2769C379.061 62.7936 377.814 62.5449 376.554 62.5449C375.295 62.5449 374.047 62.7936 372.884 63.2769C371.72 63.7601 370.663 64.4684 369.772 65.3612L366.162 68.9631C364.715 68.247 363.221 67.6314 361.69 67.1206V62.0083C361.685 59.4593 360.674 57.0156 358.877 55.2116C357.08 53.4076 354.644 52.39 352.1 52.3812H348.788C346.244 52.39 343.808 53.4076 342.011 55.2116C340.214 57.0156 339.203 59.4593 339.198 62.0083V67.1206C337.667 67.6314 336.173 68.247 334.726 68.9631L331.116 65.3612C330.225 64.4684 329.168 63.7601 328.004 63.2769C326.841 62.7936 325.593 62.5449 324.334 62.5449C323.074 62.5449 321.827 62.7936 320.663 63.2769C319.499 63.7601 318.442 64.4684 317.551 65.3612L315.2 67.7182C314.309 68.6106 313.602 69.6703 313.12 70.8365C312.638 72.0028 312.389 73.2528 312.389 74.5152C312.389 75.7776 312.638 77.0277 313.12 78.1939C313.602 79.3602 314.309 80.4198 315.2 81.3123L318.744 84.9307C318.029 86.3806 317.415 87.878 316.905 89.4123H311.804C309.261 89.4167 306.823 90.4301 305.022 92.231C303.222 94.0319 302.207 96.4738 302.198 99.0228V102.342C302.207 104.892 303.222 107.333 305.022 109.134C306.823 110.935 309.261 111.949 311.804 111.953H316.905C317.414 113.499 318.028 115.007 318.744 116.468L315.15 120.086C314.259 120.979 313.552 122.038 313.07 123.205C312.588 124.371 312.34 125.621 312.34 126.883C312.34 128.146 312.588 129.396 313.07 130.562C313.552 131.728 314.259 132.788 315.15 133.68L317.502 136.037C318.392 136.93 319.45 137.638 320.613 138.122C321.777 138.605 323.024 138.854 324.284 138.854C325.544 138.854 326.791 138.605 327.955 138.122C329.118 137.638 330.176 136.93 331.066 136.037L334.677 132.435C336.123 133.152 337.618 133.767 339.149 134.278V139.39C339.153 141.939 340.164 144.383 341.961 146.187C343.758 147.991 346.195 149.008 348.738 149.017H352.051C354.594 149.008 357.031 147.991 358.828 146.187C360.625 144.383 361.636 141.939 361.64 139.39V134.278C363.171 133.767 364.665 133.152 366.112 132.435L369.723 136.037C370.613 136.93 371.67 137.638 372.834 138.122C373.998 138.605 375.245 138.854 376.505 138.854C377.764 138.854 379.012 138.605 380.175 138.122C381.339 137.638 382.396 136.93 383.287 136.037L385.639 133.68C386.53 132.788 387.236 131.728 387.719 130.562C388.201 129.396 388.449 128.146 388.449 126.883C388.449 125.621 388.201 124.371 387.719 123.205C387.236 122.038 386.53 120.979 385.639 120.086L382.078 116.468C382.792 115.018 383.407 113.52 383.916 111.986H389.018C391.561 111.982 393.999 110.968 395.799 109.167C397.599 107.367 398.615 104.925 398.624 102.376V99.056C398.624 96.5012 397.612 94.0508 395.811 92.2427C394.01 90.4347 391.567 89.4167 389.018 89.4123ZM350.411 118.46C346.906 118.46 343.48 117.418 340.565 115.466C337.651 113.515 335.38 110.741 334.038 107.496C332.697 104.251 332.346 100.68 333.03 97.2344C333.714 93.7892 335.401 90.6246 337.88 88.1408C340.358 85.657 343.516 83.9655 346.954 83.2802C350.391 82.5949 353.954 82.9466 357.193 84.2908C360.431 85.6351 363.199 87.9115 365.146 90.8321C367.093 93.7528 368.133 97.1866 368.133 100.699C368.133 105.41 366.265 109.927 362.942 113.258C359.619 116.588 355.111 118.46 350.411 118.46Z" fill="#91B3FA"/>
<path d="M431.781 162.362H428.055C427.682 161.227 427.234 160.118 426.713 159.043L429.33 156.42C430.627 155.109 431.354 153.337 431.354 151.491C431.354 149.644 430.627 147.872 429.33 146.561L427.674 144.901C427.028 144.254 426.261 143.74 425.417 143.39C424.573 143.039 423.668 142.859 422.755 142.859C421.841 142.859 420.937 143.039 420.093 143.39C419.249 143.74 418.482 144.254 417.836 144.901L415.219 147.507C414.146 146.985 413.039 146.536 411.907 146.162V142.478C411.902 140.63 411.168 138.859 409.864 137.553C408.561 136.246 406.794 135.511 404.95 135.506H402.532C400.689 135.511 398.922 136.246 397.618 137.553C396.315 138.859 395.581 140.63 395.576 142.478V146.179C394.443 146.553 393.337 147.002 392.264 147.523L389.647 144.918C388.34 143.609 386.567 142.874 384.72 142.874C382.872 142.874 381.1 143.609 379.792 144.918L378.136 146.577C376.84 147.889 376.112 149.661 376.112 151.507C376.112 153.353 376.84 155.125 378.136 156.437L380.753 159.059C380.232 160.135 379.784 161.244 379.411 162.379H375.718C373.872 162.379 372.101 163.113 370.793 164.42C369.486 165.727 368.75 167.5 368.745 169.35V171.774C368.75 173.626 369.486 175.401 370.792 176.71C372.099 178.02 373.87 178.757 375.718 178.762H379.411C379.787 179.896 380.235 181.005 380.753 182.081L378.136 184.704C377.481 185.356 376.961 186.132 376.607 186.987C376.252 187.841 376.069 188.758 376.069 189.683C376.069 190.609 376.252 191.525 376.607 192.38C376.961 193.235 377.481 194.011 378.136 194.663L379.792 196.323C381.1 197.631 382.872 198.366 384.72 198.366C386.567 198.366 388.34 197.631 389.647 196.323L392.264 193.7C393.337 194.222 394.443 194.671 395.576 195.045V198.763C395.581 200.61 396.315 202.381 397.618 203.687C398.922 204.994 400.689 205.73 402.532 205.734H404.95C406.794 205.73 408.561 204.994 409.864 203.687C411.168 202.381 411.902 200.61 411.907 198.763V195.045C413.039 194.671 414.146 194.222 415.219 193.7L417.836 196.323C418.482 196.97 419.249 197.484 420.093 197.834C420.937 198.185 421.841 198.365 422.755 198.365C423.668 198.365 424.573 198.185 425.417 197.834C426.261 197.484 427.028 196.97 427.674 196.323L429.33 194.663C429.985 194.011 430.505 193.235 430.86 192.38C431.214 191.525 431.397 190.609 431.397 189.683C431.397 188.758 431.214 187.841 430.86 186.987C430.505 186.132 429.985 185.356 429.33 184.704L426.713 182.081C427.231 181.005 427.68 179.896 428.055 178.762H431.748C433.595 178.757 435.364 178.019 436.668 176.709C437.972 175.399 438.704 173.624 438.704 171.774V169.35C438.704 167.506 437.977 165.736 436.68 164.427C435.383 163.118 433.622 162.376 431.781 162.362ZM403.775 183.426C401.233 183.426 398.748 182.67 396.634 181.255C394.521 179.84 392.873 177.828 391.901 175.475C390.928 173.121 390.673 170.531 391.169 168.033C391.665 165.534 392.889 163.239 394.687 161.438C396.484 159.636 398.774 158.41 401.267 157.913C403.76 157.416 406.344 157.671 408.693 158.646C411.041 159.62 413.049 161.271 414.461 163.39C415.873 165.508 416.627 167.998 416.627 170.546C416.629 172.238 416.298 173.913 415.653 175.477C415.008 177.041 414.061 178.462 412.867 179.658C411.673 180.855 410.256 181.803 408.695 182.45C407.135 183.096 405.463 183.428 403.775 183.426Z" fill="#91B3FA"/>
<path d="M441.884 106.31H439.648C439.415 105.61 439.133 104.928 438.804 104.268L440.46 102.608C441.27 101.782 441.724 100.671 441.724 99.5125C441.724 98.3544 441.27 97.2427 440.46 96.4169L439.383 95.3546C438.979 94.9491 438.499 94.6274 437.97 94.4079C437.441 94.1885 436.875 94.0755 436.303 94.0755C435.731 94.0755 435.164 94.1885 434.636 94.4079C434.107 94.6274 433.627 94.9491 433.222 95.3546L431.566 97.0144C430.908 96.6843 430.227 96.4014 429.529 96.1679V93.8441C429.524 92.6833 429.062 91.5713 428.243 90.7504C427.424 89.9296 426.315 89.4665 425.156 89.4622H423.649C422.491 89.4665 421.381 89.9296 420.562 90.7504C419.743 91.5713 419.281 92.6833 419.277 93.8441V96.1679C418.579 96.4014 417.898 96.6843 417.24 97.0144L415.583 95.3546C415.179 94.9491 414.699 94.6274 414.17 94.4079C413.642 94.1885 413.075 94.0755 412.503 94.0755C411.931 94.0755 411.364 94.1885 410.836 94.4079C410.307 94.6274 409.827 94.9491 409.422 95.3546L408.346 96.4169C407.536 97.2427 407.081 98.3544 407.081 99.5125C407.081 100.671 407.536 101.782 408.346 102.608L410.002 104.268C409.672 104.928 409.39 105.61 409.157 106.31H406.839C405.683 106.31 404.575 106.769 403.758 107.588C402.942 108.407 402.483 109.517 402.483 110.675V112.202C402.483 113.36 402.942 114.47 403.758 115.289C404.575 116.107 405.683 116.567 406.839 116.567H409.157C409.384 117.269 409.667 117.952 410.002 118.609L408.346 120.269C407.536 121.095 407.081 122.206 407.081 123.364C407.081 124.523 407.536 125.634 408.346 126.46L409.422 127.539C410.241 128.354 411.349 128.811 412.503 128.811C413.657 128.811 414.764 128.354 415.583 127.539L417.24 125.879C417.901 126.197 418.582 126.474 419.277 126.709V129.033C419.281 130.194 419.743 131.306 420.562 132.126C421.381 132.947 422.491 133.41 423.649 133.415H425.156C426.315 133.41 427.424 132.947 428.243 132.126C429.062 131.306 429.524 130.194 429.529 129.033V126.709C430.224 126.474 430.904 126.197 431.566 125.879L433.222 127.539C434.041 128.354 435.149 128.811 436.303 128.811C437.457 128.811 438.564 128.354 439.383 127.539L440.46 126.46C441.27 125.634 441.724 124.523 441.724 123.364C441.724 122.206 441.27 121.095 440.46 120.269L438.804 118.609C439.139 117.952 439.421 117.269 439.648 116.567H441.967C443.114 116.554 444.209 116.089 445.015 115.271C445.821 114.454 446.273 113.351 446.273 112.202V110.675C446.273 110.099 446.16 109.528 445.939 108.997C445.718 108.465 445.394 107.982 444.986 107.576C444.578 107.171 444.094 106.85 443.561 106.632C443.029 106.415 442.459 106.305 441.884 106.31ZM424.328 119.588C422.733 119.592 421.173 119.121 419.844 118.235C418.516 117.35 417.48 116.089 416.866 114.614C416.253 113.138 416.09 111.513 416.398 109.944C416.706 108.375 417.471 106.934 418.597 105.801C419.722 104.668 421.158 103.895 422.722 103.58C424.286 103.265 425.908 103.422 427.383 104.03C428.858 104.639 430.12 105.673 431.009 107C431.898 108.328 432.374 109.89 432.378 111.488C432.364 113.621 431.511 115.661 430.004 117.166C428.496 118.671 426.456 119.518 424.328 119.522V119.588Z" fill="#91B3FA"/>
<path d="M257.182 272.792H188.631V344.265H257.182V272.792Z" fill="#91B3FA"/>
<path d="M373.168 110.857H72.6619C67.9786 110.857 64.1821 114.662 64.1821 119.356V299.001C64.1821 303.694 67.9786 307.499 72.6619 307.499H373.168C377.851 307.499 381.647 303.694 381.647 299.001V119.356C381.647 114.662 377.851 110.857 373.168 110.857Z" fill="#1E4B9B"/>
<path d="M368.232 124.286H77.5643V294.087H368.232V124.286Z" fill="#C7E0FF"/>
<path d="M179.803 339.302H266.026C271.737 339.302 277.213 341.575 281.251 345.622C285.289 349.668 287.557 355.157 287.557 360.88V363.983H158.256V360.88C158.256 358.044 158.813 355.237 159.896 352.618C160.979 349.999 162.567 347.62 164.568 345.616C166.569 343.612 168.944 342.023 171.559 340.939C174.173 339.856 176.974 339.299 179.803 339.302Z" fill="#1E4B9B"/>
<path d="M279.491 153.914H93.0666V165.184H279.491V153.914Z" fill="#7FB2E5"/>
<path d="M279.491 186.314H93.0666V197.584H279.491V186.314Z" fill="#7FB2E5"/>
<path d="M279.491 218.698H93.0666V229.968H279.491V218.698Z" fill="#7FB2E5"/>
<path d="M279.491 251.098H93.0666V262.368H279.491V251.098Z" fill="#7FB2E5"/>
<path d="M357.4 153.914H298.24V242.118H357.4V153.914Z" fill="#7FB2E5"/>
<path d="M92.0398 316.064H33.2769C29.1712 316.059 25.2349 314.423 22.3317 311.513C19.4285 308.604 17.7956 304.659 17.7912 300.544V253.936C17.7912 249.818 19.4222 245.869 22.3259 242.956C25.2295 240.043 29.1683 238.404 33.2769 238.4H92.0398C96.147 238.409 100.083 240.049 102.986 242.961C105.889 245.873 107.521 249.82 107.526 253.936V300.544C107.517 304.658 105.882 308.6 102.98 311.509C100.078 314.417 96.1442 316.055 92.0398 316.064ZM33.2769 250.915C32.4582 250.924 31.6754 251.253 31.0964 251.834C30.5175 252.414 30.1884 253.198 30.1798 254.019V300.544C30.1926 301.363 30.523 302.146 31.1011 302.725C31.6791 303.304 32.4595 303.635 33.2769 303.648H92.0398C92.8601 303.64 93.6446 303.31 94.2263 302.731C94.8079 302.151 95.1406 301.366 95.1535 300.544V253.936C95.1449 253.115 94.8158 252.331 94.2368 251.751C93.6579 251.17 92.8751 250.841 92.0564 250.832L33.2769 250.915Z" fill="#EBB04B"/>
<path d="M110.805 271.912H14.5119C8.81325 271.912 4.1936 276.542 4.1936 282.253V353.643C4.1936 359.354 8.81325 363.983 14.5119 363.983H110.805C116.503 363.983 121.123 359.354 121.123 353.643V282.253C121.123 276.542 116.503 271.912 110.805 271.912Z" fill="#EBB04B"/>
<path d="M78.5912 315.317C78.5914 312.4 77.7969 309.539 76.2934 307.041C74.7899 304.544 72.6345 302.505 70.0597 301.145C67.4849 299.786 64.5884 299.156 61.6829 299.325C58.7773 299.494 55.973 300.455 53.5724 302.104C51.1718 303.753 49.2661 306.028 48.0608 308.683C46.8556 311.338 46.3967 314.272 46.7335 317.169C47.0702 320.066 48.19 322.816 49.972 325.123C51.7539 327.429 54.1304 329.204 56.845 330.255V346.671C56.845 348.212 57.4557 349.69 58.5428 350.779C59.6299 351.869 61.1044 352.481 62.6418 352.481C64.1792 352.481 65.6536 351.869 66.7407 350.779C67.8278 349.69 68.4386 348.212 68.4386 346.671V330.255C71.436 329.081 74.0094 327.026 75.8211 324.36C77.6329 321.695 78.5985 318.542 78.5912 315.317Z" fill="#0E1118"/>
<path d="M432.874 215.726H263.012V250.55H432.874V215.726Z" fill="url(#paint0_linear)"/>
<path d="M425.885 243.529V222.714H270.001V243.529H425.885Z" fill="white"/>
<path d="M299.73 238.25C302.548 238.25 304.832 235.961 304.832 233.138C304.832 230.315 302.548 228.026 299.73 228.026C296.913 228.026 294.629 230.315 294.629 233.138C294.629 235.961 296.913 238.25 299.73 238.25Z" fill="url(#paint1_linear)"/>
<path d="M324.127 233.138C324.127 234.152 323.827 235.144 323.264 235.988C322.702 236.831 321.903 237.488 320.967 237.877C320.032 238.265 319.003 238.366 318.011 238.168C317.018 237.971 316.106 237.482 315.39 236.765C314.674 236.048 314.187 235.134 313.99 234.139C313.792 233.144 313.893 232.113 314.281 231.175C314.668 230.238 315.324 229.437 316.166 228.874C317.007 228.31 317.997 228.009 319.009 228.009C319.682 228.007 320.348 228.138 320.97 228.395C321.592 228.652 322.157 229.03 322.633 229.507C323.108 229.983 323.485 230.549 323.742 231.173C323.998 231.796 324.129 232.464 324.127 233.138Z" fill="url(#paint2_linear)"/>
<path d="M338.304 238.25C341.121 238.25 343.405 235.961 343.405 233.138C343.405 230.315 341.121 228.026 338.304 228.026C335.487 228.026 333.203 230.315 333.203 233.138C333.203 235.961 335.487 238.25 338.304 238.25Z" fill="url(#paint3_linear)"/>
<path d="M357.582 238.25C360.4 238.25 362.684 235.961 362.684 233.138C362.684 230.315 360.4 228.026 357.582 228.026C354.765 228.026 352.481 230.315 352.481 233.138C352.481 235.961 354.765 238.25 357.582 238.25Z" fill="url(#paint4_linear)"/>
<path d="M381.979 233.138C381.979 234.153 381.678 235.145 381.115 235.989C380.552 236.833 379.752 237.49 378.815 237.878C377.879 238.266 376.85 238.366 375.856 238.167C374.863 237.968 373.951 237.478 373.236 236.759C372.521 236.04 372.035 235.124 371.839 234.128C371.644 233.132 371.748 232.101 372.137 231.164C372.527 230.227 373.186 229.427 374.03 228.865C374.873 228.304 375.865 228.006 376.877 228.009C377.549 228.009 378.213 228.142 378.833 228.4C379.453 228.658 380.016 229.036 380.49 229.512C380.964 229.989 381.34 230.554 381.595 231.177C381.85 231.799 381.981 232.465 381.979 233.138Z" fill="url(#paint5_linear)"/>
<path d="M396.156 238.25C398.973 238.25 401.257 235.961 401.257 233.138C401.257 230.315 398.973 228.026 396.156 228.026C393.339 228.026 391.055 230.315 391.055 233.138C391.055 235.961 393.339 238.25 396.156 238.25Z" fill="url(#paint6_linear)"/>
<path d="M147.474 158.927H47.5204V175.06H147.474V158.927Z" fill="url(#paint7_linear)"/>
<path d="M40.0508 148.503H3.16672V185.467H40.0508V148.503Z" fill="#1E4B9B"/>
<path d="M34.6184 153.947H8.58258V180.04H34.6184V153.947Z" fill="#C7E0FF"/>
<path d="M0.185516 152.951L22.6771 163.906L56.6959 138.328L22.0643 178.529L0.185516 152.951Z" fill="#EBB04B"/>
<path d="M154.298 204.5H47.7068V221.071H154.298V204.5Z" fill="url(#paint8_linear)"/>
<path d="M40.0508 194.364H3.16672V231.329H40.0508V194.364Z" fill="#1E4B9B"/>
<path d="M34.6184 199.792H8.58258V225.901H34.6184V199.792Z" fill="#C7E0FF"/>
<path d="M0.185516 198.813L22.6771 209.767L56.6959 184.189L22.0643 224.374L0.185516 198.813Z" fill="#EBB04B"/>
<path d="M222.915 29.4644C193.566 71.7405 138.547 75.4088 138.547 75.4088V156.276C138.547 215.101 222.915 246.339 222.915 246.339C222.915 246.339 307.266 215.101 307.266 156.276V75.4088C307.266 75.4088 252.246 71.7405 222.915 29.4644Z" fill="#1E4B9B"/>
<path d="M222.915 232.745C210.483 227.371 198.652 220.694 187.621 212.827C163.39 195.266 151.101 176.311 151.101 156.26V86.3471C167.862 83.1934 199.131 74.2303 222.915 49.2828C246.632 74.1805 277.951 83.1934 294.712 86.3471V156.276C294.712 176.194 282.423 195.283 258.192 212.844C247.163 220.7 235.338 227.371 222.915 232.745Z" fill="white"/>
<path d="M244.644 126.432C244.652 122.492 243.594 118.623 241.582 115.238C239.57 111.852 236.68 109.076 233.22 107.206C229.759 105.336 225.857 104.441 221.929 104.616C218.001 104.792 214.194 106.032 210.914 108.203C207.633 110.375 205.001 113.397 203.298 116.949C201.595 120.5 200.884 124.448 201.242 128.372C201.6 132.296 203.013 136.05 205.33 139.233C207.647 142.416 210.782 144.91 214.402 146.45V162.55C214.351 163.712 214.535 164.873 214.944 165.961C215.352 167.05 215.977 168.045 216.779 168.885C217.582 169.725 218.545 170.394 219.613 170.851C220.68 171.308 221.829 171.543 222.989 171.543C224.15 171.543 225.298 171.308 226.366 170.851C227.433 170.394 228.397 169.725 229.199 168.885C230.002 168.045 230.626 167.05 231.035 165.961C231.443 164.873 231.628 163.712 231.577 162.55V146.45C235.467 144.756 238.777 141.957 241.099 138.4C243.421 134.843 244.653 130.683 244.644 126.432Z" fill="#1E4B9B"/>
<g style="mix-blend-mode:multiply" opacity="0.38">
<path d="M222.915 49.2828V232.745C235.339 227.366 247.164 220.689 258.192 212.827C282.423 195.266 294.712 176.311 294.712 156.26V86.3471C277.951 83.1602 246.632 74.2303 222.915 49.2828Z" fill="#77A4E5"/>
</g>
<path d="M406.027 0.693726C401.417 0.692668 396.933 2.19974 393.256 4.98593C389.579 7.77213 386.911 11.6851 385.655 16.1303H334.826V27.6496V40.6129H346.32V27.6496H352.945V40.6129H364.439V27.6496H385.655C386.725 31.4446 388.829 34.8654 391.732 37.5275C394.635 40.1895 398.221 41.9873 402.088 42.7185C405.954 43.4497 409.948 43.0855 413.619 41.6667C417.29 40.2479 420.494 37.8309 422.87 34.6874C425.245 31.5439 426.699 27.7985 427.067 23.8724C427.435 19.9463 426.703 15.9951 424.953 12.4632C423.203 8.93123 420.504 5.95855 417.161 3.87938C413.818 1.8002 409.962 0.696967 406.027 0.693726ZM406.027 32.5461C403.925 32.5461 401.871 31.9219 400.123 30.7525C398.375 29.583 397.012 27.9207 396.207 25.9755C395.401 24.0303 395.188 21.8894 395.596 19.8232C396.004 17.757 397.013 15.8582 398.497 14.3666C399.98 12.875 401.872 11.8575 403.932 11.4425C405.993 11.0276 408.13 11.2339 410.073 12.0354C412.017 12.8368 413.679 14.1975 414.852 15.9455C416.024 17.6936 416.653 19.7505 416.66 21.8567C416.666 23.2595 416.396 24.6497 415.865 25.9474C415.333 27.2451 414.55 28.4247 413.562 29.4181C412.574 30.4116 411.399 31.1994 410.106 31.7363C408.813 32.2731 407.427 32.5483 406.027 32.5461Z" fill="#EBB04B"/>
<defs>
<linearGradient id="paint0_linear" x1="36673" y1="5379.71" x2="54094.1" y2="5379.71" gradientUnits="userSpaceOnUse">
<stop stop-color="#1E4B9B"/>
<stop offset="1" stop-color="#381B96"/>
</linearGradient>
<linearGradient id="paint1_linear" x1="2676.26" y1="1744.23" x2="2739.11" y2="1744.23" gradientUnits="userSpaceOnUse">
<stop stop-color="#1E4B9B"/>
<stop offset="1" stop-color="#381B96"/>
</linearGradient>
<linearGradient id="paint2_linear" x1="2822.4" y1="1749.15" x2="2885.55" y2="1749.15" gradientUnits="userSpaceOnUse">
<stop stop-color="#1E4B9B"/>
<stop offset="1" stop-color="#381B96"/>
</linearGradient>
<linearGradient id="paint3_linear" x1="2952.46" y1="1744.23" x2="3015.31" y2="1744.23" gradientUnits="userSpaceOnUse">
<stop stop-color="#1E4B9B"/>
<stop offset="1" stop-color="#381B96"/>
</linearGradient>
<linearGradient id="paint4_linear" x1="3090.48" y1="1744.23" x2="3153.43" y2="1744.23" gradientUnits="userSpaceOnUse">
<stop stop-color="#1E4B9B"/>
<stop offset="1" stop-color="#381B96"/>
</linearGradient>
<linearGradient id="paint5_linear" x1="3237.78" y1="1749.14" x2="3300.93" y2="1749.14" gradientUnits="userSpaceOnUse">
<stop stop-color="#1E4B9B"/>
<stop offset="1" stop-color="#381B96"/>
</linearGradient>
<linearGradient id="paint6_linear" x1="3366.67" y1="1744.23" x2="3429.62" y2="1744.23" gradientUnits="userSpaceOnUse">
<stop stop-color="#1E4B9B"/>
<stop offset="1" stop-color="#381B96"/>
</linearGradient>
<linearGradient id="paint7_linear" x1="8467.58" y1="1908.46" x2="14499.8" y2="1908.46" gradientUnits="userSpaceOnUse">
<stop stop-color="#1E4B9B"/>
<stop offset="1" stop-color="#381B96"/>
</linearGradient>
<linearGradient id="paint8_linear" x1="9026.94" y1="2459.37" x2="15459.7" y2="2459.37" gradientUnits="userSpaceOnUse">
<stop stop-color="#1E4B9B"/>
<stop offset="1" stop-color="#381B96"/>
</linearGradient>
</defs>
</svg>
