<svg width="517" height="272" viewBox="0 0 517 272" fill="none" xmlns="http://www.w3.org/2000/svg">
<path d="M17.1125 290.862C17.1125 290.862 -26.6857 222.912 25.8564 149.772C106.889 36.9687 213.485 108.235 254.937 42.0168C311.466 -48.2842 525.466 15.1849 489.737 154.117C472.447 221.348 542.356 223.794 506.734 291L17.1125 290.862Z" fill="#D9E9FE"/>
<path d="M118.676 258.403C118.681 259.408 119.084 260.371 119.796 261.081C120.508 261.791 121.472 262.19 122.478 262.193H328.039C329.044 262.19 330.008 261.791 330.72 261.081C331.432 260.371 331.835 259.408 331.84 258.403L333.55 140.334C333.55 138.247 331.09 134.172 326.579 134.477L125.683 129.281C124.385 129.247 123.095 129.477 121.889 129.957C120.683 130.436 119.587 131.156 118.668 132.072C117.749 132.987 117.025 134.08 116.541 135.284C116.057 136.488 115.823 137.777 115.853 139.074L118.676 258.403Z" fill="#1E4B9B"/>
<path d="M122.429 254.762C122.432 255.715 122.812 256.627 123.486 257.301C124.159 257.974 125.073 258.353 126.025 258.356H323.08C324.033 258.353 324.946 257.974 325.62 257.301C326.294 256.627 326.674 255.715 326.676 254.762L328.291 147.579C328.1 141.128 322.442 138.811 319.013 138.948L126.472 133.783C125.56 133.76 124.653 133.921 123.806 134.259C122.958 134.597 122.188 135.103 121.542 135.747C120.896 136.391 120.388 137.159 120.049 138.005C119.709 138.852 119.545 139.758 119.566 140.67L122.429 254.762Z" fill="#142142"/>
<path d="M324.546 203.842C324.476 203.842 324.407 203.827 324.343 203.799C324.279 203.771 324.221 203.731 324.173 203.681C324.124 203.63 324.086 203.571 324.061 203.506C324.035 203.44 324.023 203.371 324.025 203.301L324.152 194.608C324.155 194.47 324.211 194.338 324.309 194.241C324.408 194.144 324.541 194.089 324.679 194.089C324.749 194.09 324.818 194.105 324.883 194.132C324.947 194.16 325.005 194.2 325.053 194.251C325.102 194.301 325.14 194.361 325.165 194.426C325.19 194.491 325.202 194.561 325.2 194.631L325.073 203.323C325.071 203.461 325.015 203.593 324.916 203.69C324.818 203.787 324.685 203.842 324.546 203.842Z" fill="white"/>
<path d="M324.859 182.54C324.789 182.539 324.72 182.524 324.656 182.496C324.592 182.469 324.535 182.428 324.486 182.378C324.438 182.328 324.4 182.268 324.375 182.203C324.349 182.138 324.337 182.069 324.339 181.999L324.828 148.704C324.82 146.725 324.219 145.147 323.043 144.021C320.85 141.92 317.365 142.027 317.22 142.034L255.679 140.384C255.61 140.382 255.542 140.367 255.479 140.339C255.415 140.31 255.358 140.27 255.311 140.22C255.263 140.169 255.226 140.11 255.201 140.045C255.177 139.981 255.165 139.912 255.167 139.843C255.166 139.772 255.179 139.703 255.207 139.638C255.234 139.573 255.274 139.515 255.325 139.467C255.376 139.419 255.437 139.382 255.503 139.358C255.569 139.335 255.639 139.326 255.709 139.331L317.214 140.979C317.596 140.958 321.305 140.893 323.775 143.259C325.165 144.589 325.875 146.423 325.886 148.706L325.395 182.01C325.396 182.08 325.383 182.15 325.356 182.215C325.329 182.28 325.29 182.339 325.24 182.388C325.19 182.438 325.13 182.477 325.065 182.503C325 182.529 324.93 182.542 324.859 182.54Z" fill="white"/>
<path d="M102.765 272L343.582 272C344.004 272 344.347 271.658 344.347 271.235V262.39C344.347 261.968 344.004 261.626 343.582 261.626L102.765 261.626C102.343 261.626 102 261.968 102 262.39V271.235C102 271.658 102.343 272 102.765 272Z" fill="#1E4B9B"/>
<path d="M207.919 253.127H132.049C131.384 253.127 130.725 252.996 130.111 252.742C129.496 252.488 128.938 252.115 128.468 251.645C127.997 251.175 127.624 250.617 127.37 250.002C127.115 249.388 126.984 248.73 126.984 248.065V149.081C126.984 148.4 127.121 147.726 127.388 147.099C127.655 146.472 128.045 145.906 128.536 145.434C129.027 144.961 129.609 144.593 130.245 144.35C130.882 144.108 131.561 143.996 132.242 144.022L208.113 146.924C209.423 146.973 210.662 147.528 211.571 148.471C212.48 149.415 212.988 150.673 212.988 151.983V248.065C212.988 248.73 212.857 249.389 212.602 250.003C212.347 250.618 211.974 251.176 211.503 251.646C211.032 252.116 210.473 252.489 209.859 252.743C209.244 252.997 208.585 253.128 207.919 253.127Z" fill="#91B3FA"/>
<path opacity="0.51" d="M192.83 182.852H142.573C142.175 182.852 141.852 183.175 141.852 183.573V188.805C141.852 189.204 142.175 189.527 142.573 189.527H192.83C193.229 189.527 193.552 189.204 193.552 188.805V183.573C193.552 183.175 193.229 182.852 192.83 182.852Z" fill="white"/>
<path opacity="0.51" d="M192.932 193.513H142.675C142.276 193.513 141.953 193.836 141.953 194.234V199.467C141.953 199.865 142.276 200.188 142.675 200.188H192.932C193.33 200.188 193.653 199.865 193.653 199.467V194.234C193.653 193.836 193.33 193.513 192.932 193.513Z" fill="white"/>
<path opacity="0.51" d="M193.234 204.396H142.977C142.578 204.396 142.255 204.719 142.255 205.117V210.35C142.255 210.748 142.578 211.071 142.977 211.071H193.234C193.632 211.071 193.955 210.748 193.955 210.35V205.117C193.955 204.719 193.632 204.396 193.234 204.396Z" fill="white"/>
<path opacity="0.51" d="M193.337 215.057H143.08C142.681 215.057 142.358 215.38 142.358 215.779V221.011C142.358 221.41 142.681 221.732 143.08 221.732H193.337C193.735 221.732 194.058 221.41 194.058 221.011V215.779C194.058 215.38 193.735 215.057 193.337 215.057Z" fill="white"/>
<path opacity="0.51" d="M303.045 182.845H230.159C229.76 182.845 229.437 183.168 229.437 183.566V188.799C229.437 189.197 229.76 189.52 230.159 189.52H303.045C303.444 189.52 303.767 189.197 303.767 188.799V183.566C303.767 183.168 303.444 182.845 303.045 182.845Z" fill="white"/>
<path opacity="0.51" d="M303.275 193.513H230.389C229.99 193.513 229.667 193.836 229.667 194.234V199.467C229.667 199.865 229.99 200.188 230.389 200.188H303.275C303.674 200.188 303.997 199.865 303.997 199.467V194.234C303.997 193.836 303.674 193.513 303.275 193.513Z" fill="white"/>
<path opacity="0.51" d="M272.989 204.396H230.389C229.99 204.396 229.667 204.719 229.667 205.117V210.35C229.667 210.748 229.99 211.071 230.389 211.071H272.989C273.388 211.071 273.711 210.748 273.711 210.35V205.117C273.711 204.719 273.388 204.396 272.989 204.396Z" fill="white"/>
<g opacity="0.51">
<path d="M268.896 157.964H267.764C267.494 157.964 267.235 157.857 267.044 157.666C266.853 157.476 266.746 157.217 266.745 156.948V153.079C266.745 152.415 266.481 151.777 266.011 151.307C265.541 150.837 264.903 150.573 264.238 150.573H257.222C256.557 150.573 255.919 150.837 255.448 151.307C254.978 151.777 254.714 152.415 254.714 153.079V156.948C254.713 157.217 254.606 157.476 254.415 157.666C254.224 157.857 253.965 157.964 253.695 157.964H252.563C252.294 157.964 252.035 157.857 251.844 157.666C251.653 157.476 251.545 157.217 251.545 156.948V153.079C251.545 151.575 252.143 150.132 253.208 149.068C254.272 148.004 255.716 147.406 257.222 147.406H264.238C264.983 147.406 265.721 147.552 266.41 147.837C267.099 148.122 267.725 148.54 268.252 149.067C268.78 149.594 269.198 150.219 269.483 150.908C269.769 151.596 269.916 152.334 269.916 153.079V156.948C269.915 157.081 269.889 157.214 269.838 157.337C269.786 157.46 269.711 157.572 269.616 157.667C269.522 157.761 269.409 157.836 269.286 157.887C269.162 157.938 269.03 157.964 268.896 157.964Z" fill="#8C92A2"/>
<path d="M270.299 158.878H251.16C250.597 158.878 250.057 159.101 249.659 159.499C249.261 159.897 249.037 160.437 249.037 161V175.681C249.037 176.244 249.261 176.783 249.659 177.181C250.057 177.579 250.597 177.803 251.16 177.803H270.299C270.862 177.803 271.402 177.579 271.8 177.181C272.198 176.783 272.422 176.244 272.422 175.681V161C272.422 160.437 272.198 159.897 271.8 159.499C271.402 159.101 270.862 158.878 270.299 158.878ZM263.468 173.066C263.496 173.182 263.498 173.302 263.472 173.418C263.447 173.534 263.395 173.643 263.321 173.737C263.248 173.83 263.154 173.906 263.047 173.958C262.94 174.009 262.822 174.036 262.703 174.036H258.756C258.637 174.036 258.519 174.009 258.412 173.958C258.305 173.906 258.211 173.83 258.138 173.737C258.064 173.643 258.013 173.534 257.987 173.418C257.962 173.302 257.963 173.182 257.991 173.066L258.912 169.236C258.245 168.838 257.727 168.232 257.437 167.512C257.148 166.792 257.103 165.996 257.309 165.248C257.516 164.5 257.962 163.84 258.58 163.369C259.198 162.899 259.953 162.644 260.73 162.644C261.506 162.644 262.261 162.899 262.879 163.369C263.497 163.84 263.944 164.5 264.15 165.248C264.356 165.996 264.311 166.792 264.022 167.512C263.732 168.232 263.215 168.838 262.548 169.236L263.468 173.066Z" fill="#8C92A2"/>
</g>
<path d="M260.013 48.0819C260.568 47.5614 261.228 47.1643 261.948 46.9165C262.668 46.6688 263.432 46.5761 264.19 46.6445C280.6 48.1198 311.215 40.2196 331.221 19.7566C332.61 18.3368 335.148 19.1394 336.736 20.3291C358.988 36.951 395.874 40.3942 408.679 41.098C409.962 41.1694 411.177 41.6955 412.107 42.5818C413.036 43.4681 413.619 44.6566 413.751 45.9339C425.397 158.346 352.168 199.08 336.982 206.269C336.163 206.655 335.26 206.831 334.356 206.778C333.452 206.726 332.576 206.448 331.807 205.97C256.11 158.847 259.352 97.5577 258.304 52.1544C258.286 51.3937 258.429 50.6378 258.724 49.9361C259.018 49.2344 259.457 48.6025 260.013 48.0819Z" fill="#3C3C3C"/>
<path opacity="0.61" d="M334.933 198.104C334.589 198.104 334.252 198.006 333.962 197.822C304.944 179.28 286.025 157.114 276.139 130.057C267.307 105.891 266.875 81.2837 266.494 59.5741L266.442 56.6791C266.437 56.4419 266.479 56.2061 266.567 55.9857C266.655 55.7653 266.786 55.5647 266.953 55.396C267.12 55.2243 267.32 55.0879 267.542 54.9949C267.763 54.9019 268 54.8542 268.24 54.8546C286.211 54.8546 313.186 46.9233 332.969 29.2052C333.265 28.9406 333.64 28.7815 334.036 28.7529C334.431 28.7242 334.826 28.8276 335.156 29.0468C356.895 43.4639 387.902 47.661 404.451 48.8804C404.876 48.9109 405.276 49.0921 405.58 49.3914C405.883 49.6906 406.069 50.0883 406.105 50.5127C409.95 94.373 400.823 131.462 378.975 160.751C362.656 182.623 343.308 194.02 335.745 197.905C335.494 198.034 335.216 198.103 334.933 198.104ZM335.414 197.252L335.581 197.58L335.414 197.252C342.929 193.391 362.162 182.062 378.388 160.312C400.125 131.174 409.204 94.2526 405.375 50.579C405.354 50.3291 405.244 50.0949 405.065 49.9185C404.887 49.7422 404.651 49.6351 404.401 49.6167C387.78 48.3986 356.63 44.1731 334.753 29.664C334.558 29.5343 334.326 29.4729 334.092 29.4896C333.859 29.5062 333.638 29.6 333.464 29.756C313.536 47.6055 286.355 55.5936 268.258 55.5936C268.113 55.5915 267.97 55.6187 267.836 55.6736C267.702 55.7285 267.581 55.8099 267.479 55.913C267.382 56.012 267.305 56.1297 267.253 56.2589C267.202 56.3882 267.177 56.5265 267.18 56.6656L267.232 59.5606C267.612 81.216 268.044 105.754 276.833 129.805C286.664 156.705 305.481 178.752 334.36 197.208C334.517 197.306 334.696 197.361 334.881 197.369C335.066 197.377 335.249 197.336 335.414 197.251V197.252Z" fill="white"/>
<path d="M361.392 90.5156H357.97C357.153 90.5156 356.37 90.1915 355.793 89.6146C355.216 89.0376 354.892 88.2551 354.892 87.4392V75.7453C354.892 73.7351 354.093 71.8073 352.671 70.3859C351.248 68.9645 349.32 68.1659 347.308 68.1659H326.1C324.088 68.1659 322.16 68.9645 320.737 70.3859C319.315 71.8073 318.516 73.7351 318.516 75.7453V87.4392C318.516 88.2551 318.192 89.0376 317.615 89.6146C317.038 90.1915 316.255 90.5156 315.438 90.5156H312.016C311.2 90.5156 310.417 90.1915 309.84 89.6146C309.263 89.0376 308.938 88.2551 308.938 87.4392V75.7453C308.938 71.1962 310.746 66.8334 313.965 63.6167C317.183 60.4 321.548 58.5929 326.1 58.5929H347.308C351.86 58.5929 356.225 60.4 359.443 63.6167C362.662 66.8334 364.47 71.1962 364.47 75.7453V87.4392C364.47 88.2551 364.145 89.0376 363.568 89.6146C362.991 90.1915 362.208 90.5156 361.392 90.5156Z" fill="#B3D2F6"/>
<path d="M365.634 93.2753H307.772C306.07 93.2753 304.437 93.9514 303.233 95.1548C302.029 96.3581 301.352 97.9903 301.352 99.6921V144.075C301.352 145.777 302.029 147.409 303.233 148.612C304.437 149.816 306.07 150.492 307.772 150.492H365.634C366.477 150.492 367.312 150.326 368.091 150.004C368.87 149.681 369.578 149.208 370.174 148.613C370.77 148.017 371.243 147.309 371.566 146.531C371.889 145.752 372.054 144.918 372.054 144.075V99.6921C372.054 98.8494 371.889 98.0149 371.566 97.2363C371.243 96.4577 370.77 95.7503 370.174 95.1544C369.578 94.5585 368.87 94.0858 368.091 93.7634C367.312 93.441 366.477 93.2752 365.634 93.2753ZM344.982 136.172C345.066 136.521 345.07 136.885 344.993 137.236C344.916 137.588 344.761 137.917 344.538 138.199C344.316 138.481 344.032 138.709 343.708 138.866C343.385 139.023 343.03 139.105 342.67 139.105H330.738C330.378 139.105 330.023 139.023 329.699 138.866C329.376 138.709 329.092 138.481 328.87 138.199C328.647 137.917 328.491 137.588 328.414 137.237C328.337 136.885 328.341 136.521 328.425 136.172L331.209 124.589C329.529 123.588 328.155 122.147 327.236 120.422C326.317 118.696 325.887 116.753 325.994 114.801C326.278 109.421 330.64 105.018 336.015 104.684C338.416 104.531 340.8 105.189 342.782 106.553C344.764 107.918 346.229 109.909 346.942 112.206C347.655 114.503 347.575 116.973 346.713 119.219C345.852 121.465 344.26 123.357 342.194 124.589L344.982 136.172Z" fill="#B3D2F6"/>
</svg>
