<?xml version="1.0" encoding="utf-8"?><svg viewBox="0 0 107 79" xmlns="http://www.w3.org/2000/svg" xmlns:xlink="http://www.w3.org/1999/xlink"><style>:root>svg{display:none}:root>svg:target{display:block}</style><svg fill="none" viewBox="0 0 30 30" id="2way_arrows" xmlns="http://www.w3.org/2000/svg"><g clip-path="url(#aclip0)" fill="#000"><path d="M28.124 17.817c0 2.625-1.575 2.812-1.874 2.812H3.197l4.96-4.959-1.322-1.33L.273 20.9a.937.937 0 000 1.322l6.562 6.562 1.322-1.322-4.96-4.959H26.25c1.294 0 3.75-.937 3.75-4.687v-2.812h-1.875v2.812z"/><path d="M1.877 12.192c0-2.624 1.575-2.812 1.875-2.812h23.052l-4.96 4.96 1.322 1.321 6.562-6.562a.937.937 0 000-1.322l-6.562-6.562-1.33 1.331 4.968 4.96H3.752c-1.294 0-3.75.937-3.75 4.686v2.813h1.875v-2.813z"/></g><defs><clipPath id="aclip0"><path fill="#fff" d="M0 0h30v30H0z"/></clipPath></defs></svg><svg fill="none" viewBox="0 0 25 26" id="check" xmlns="http://www.w3.org/2000/svg"><path d="M23.198 1.609L20.059 0l-1.198 2.413A12.352 12.352 0 009.82.944 12.494 12.494 0 002.22 6.115a12.814 12.814 0 00-2.088 9.038 12.716 12.716 0 004.545 8.057 12.384 12.384 0 008.742 2.756 12.434 12.434 0 008.25-4.024A12.774 12.774 0 0025 13.296a12.772 12.772 0 00-3.371-8.63l1.569-3.057zm-1.57 11.71a9.112 9.112 0 01-1.8 5.535 8.9 8.9 0 01-4.76 3.266 8.788 8.788 0 01-5.736-.363 8.943 8.943 0 01-4.322-3.842 9.134 9.134 0 01-1.107-5.719 9.075 9.075 0 012.57-5.213 8.855 8.855 0 015.176-2.534 8.802 8.802 0 015.625 1.2l-4.76 9.654-3.526-4.845-2.821 2.146 5.289 7.15a1.743 1.743 0 001.41.715h.159c.298-.028.584-.134.83-.306a1.78 1.78 0 00.58-.677l5.59-11.334a8.88 8.88 0 011.604 5.167z" fill="#91B3FA"/></svg><svg fill="none" viewBox="0 0 23 23" id="coin_btc" xmlns="http://www.w3.org/2000/svg"><g clip-path="url(#cclip0)"><path d="M22.655 14.284c-1.535 6.16-7.776 9.909-13.938 8.372C2.555 21.118-1.193 14.88.345 8.72 1.883 2.559 8.121-1.192 14.281.346c6.16 1.537 9.912 7.775 8.374 13.938z" fill="#F7931A"/><path d="M16.572 9.862c.228-1.53-.937-2.353-2.53-2.902l.517-2.073-1.262-.314-.504 2.018a49.74 49.74 0 00-1.011-.238l.506-2.032-1.261-.314-.516 2.072-2.545-.63-.336 1.348s.936.214.917.227c.51.128.603.466.588.734l-1.416 5.68c-.063.154-.221.387-.579.298.013.018-.917-.23-.917-.23l-.626 1.447 2.541.641-.522 2.097 1.26.315.518-2.075c.345.094.678.18 1.005.261l-.515 2.065 1.262.314.522-2.093c2.152.407 3.77.243 4.45-1.702.55-1.566-.026-2.47-1.159-3.06.825-.191 1.446-.733 1.611-1.854h.002zm-2.885 4.043c-.39 1.567-3.028.72-3.884.507l.693-2.778c.855.214 3.598.637 3.192 2.27zm.392-4.066c-.356 1.426-2.552.702-3.265.524l.627-2.52c.713.178 3.008.51 2.637 1.996" fill="#fff"/></g><defs><clipPath id="cclip0"><path fill="#fff" d="M0 0h23v23H0z"/></clipPath></defs></svg><svg fill="none" viewBox="0 0 23 23" id="coin_usd" xmlns="http://www.w3.org/2000/svg"><path d="M11.5 23C17.851 23 23 17.851 23 11.5S17.851 0 11.5 0 0 5.149 0 11.5 5.149 23 11.5 23z" fill="#0F8013"/><path d="M11 18.03v-1.405c-1.551-.114-2.764-.656-3.639-1.624l1.016-1.405A4.394 4.394 0 0011 14.986V11.97c-.489-.125-.895-.244-1.218-.359a6.223 6.223 0 01-1.015-.515 2.331 2.331 0 01-.812-.875c-.177-.364-.266-.791-.266-1.28 0-.802.302-1.484.906-2.046.604-.563 1.406-.885 2.405-.969V4.475h1.25v1.468c1.26.135 2.306.604 3.139 1.406l-1.047 1.358a4.071 4.071 0 00-2.092-1.093V10.3c.385.104.713.203.984.297.27.094.567.23.89.406.333.167.598.354.796.562.198.198.365.458.5.781s.203.687.203 1.093c0 .854-.286 1.578-.859 2.171-.562.583-1.4.922-2.514 1.015v1.406H11zm2.39-3.544c.25-.26.375-.552.375-.875a.934.934 0 00-.39-.78c-.261-.209-.636-.386-1.125-.532v2.702c.51-.083.89-.255 1.14-.515zm-3.826-5.67c0 .5.479.886 1.436 1.156V7.536c-.447.042-.801.182-1.062.422-.25.229-.374.515-.374.859z" fill="#fff"/></svg><svg fill="none" viewBox="0 0 59 55" id="contact" xmlns="http://www.w3.org/2000/svg"><path d="M55.628 0H15.735a2.43 2.43 0 00-2.428 2.428V13.43l-1.824-2.736a2.821 2.821 0 00-3.809-.857l-3.753 2.257a5.507 5.507 0 00-2.515 3.263c-1.37 4.985-.354 13.574 12.253 26.183C23.685 51.556 31.16 54.254 36.312 54.254c1.193.005 2.38-.15 3.532-.461a5.517 5.517 0 003.264-2.513l2.254-3.757a2.821 2.821 0 00-.857-3.804l-8.987-5.99a2.836 2.836 0 00-3.797.616l-2.617 3.363a.911.911 0 01-1.165.247l-.498-.274c-1.639-.893-3.678-2.005-7.797-6.124-.446-.446-.85-.863-1.228-1.262h37.212a2.426 2.426 0 002.428-2.416V2.428A2.43 2.43 0 0055.628 0zM26.53 43.353l.483.265a2.805 2.805 0 003.595-.74l2.616-3.364a.925.925 0 011.238-.201l8.987 5.99a.92.92 0 01.279 1.238L41.474 50.3a3.618 3.618 0 01-2.133 1.656c-4.501 1.238-12.378.19-24.333-11.765C3.053 28.234 2.01 20.358 3.245 15.861A3.618 3.618 0 014.9 13.728l3.757-2.255a.92.92 0 011.237.279l5.994 8.987a.924.924 0 01-.201 1.238l-3.365 2.617a2.804 2.804 0 00-.74 3.593l.266.484c.952 1.746 2.136 3.919 6.45 8.232 4.314 4.313 6.486 5.498 8.23 6.45zm29.622-11.474a.52.52 0 01-.523.514h-38.93a24.01 24.01 0 01-3.178-4.631l-.274-.5a.908.908 0 01.245-1.164l3.365-2.617a2.836 2.836 0 00.616-3.797l-2.262-3.395V2.428a.518.518 0 01.524-.524h39.893a.518.518 0 01.524.524v29.45z" fill="#0E1118"/><path d="M52.35 4.408L36.436 16.477c-.45.327-1.06.327-1.51 0L19.02 4.408a.952.952 0 10-1.151 1.518l15.908 12.067a3.205 3.205 0 003.809 0L53.499 5.926a.952.952 0 10-1.15-1.518zM27.556 18.073l-9.753 10.445a.952.952 0 001.393 1.299l9.753-10.45a.952.952 0 00-1.393-1.294zM43.87 18.073a.952.952 0 10-1.393 1.299l9.75 10.444a.952.952 0 101.394-1.298L43.87 18.073z" fill="#77A4E5"/></svg><svg fill="none" viewBox="0 0 73 73" id="encryption" xmlns="http://www.w3.org/2000/svg"><path d="M59.958 28.516h4.146a4.57 4.57 0 004.334 3.136A4.568 4.568 0 0073 27.09a4.568 4.568 0 00-4.563-4.563 4.57 4.57 0 00-4.333 3.137h-4.146V20.72c0-.71-.523-1.312-1.226-1.412a45.247 45.247 0 01-4.434-.857l2.156-3.978h11.983c.788 0 1.426-.639 1.426-1.426v-4.15A4.57 4.57 0 0073 4.562 4.568 4.568 0 0068.437 0a4.568 4.568 0 00-4.562 4.563 4.57 4.57 0 003.137 4.333v2.724H55.605c-.523 0-1.004.287-1.253.746l-2.87 5.296a45.611 45.611 0 01-14.113-7.35 1.425 1.425 0 00-1.739 0 45.607 45.607 0 01-14.112 7.35l-2.87-5.296c-.25-.46-.73-.746-1.254-.746H5.988V8.896a4.57 4.57 0 003.137-4.334A4.568 4.568 0 004.562 0 4.568 4.568 0 000 4.563a4.57 4.57 0 003.137 4.333v4.15c0 .787.638 1.426 1.425 1.426h11.984l2.156 3.978a45.23 45.23 0 01-4.434.857c-.703.1-1.226.701-1.226 1.412v4.945H8.896a4.57 4.57 0 00-4.334-3.137A4.568 4.568 0 000 27.09a4.568 4.568 0 004.563 4.562 4.57 4.57 0 004.333-3.136h4.146v7.811c0 2.773.396 5.52 1.155 8.157H8.896a4.57 4.57 0 00-4.334-3.136A4.568 4.568 0 000 45.91a4.568 4.568 0 004.563 4.563 4.57 4.57 0 004.333-3.137h6.28a29.306 29.306 0 005.12 8.355H4.563c-.788 0-1.426.638-1.426 1.425v6.988A4.57 4.57 0 000 68.438 4.568 4.568 0 004.563 73a4.568 4.568 0 004.562-4.563 4.57 4.57 0 00-3.137-4.333v-5.562h17.176a29.523 29.523 0 0013.033 6.528 1.43 1.43 0 00.606 0 29.523 29.523 0 0013.033-6.528h17.176v5.562a4.57 4.57 0 00-3.137 4.334A4.568 4.568 0 0068.438 73 4.568 4.568 0 0073 68.437a4.57 4.57 0 00-3.137-4.333v-6.988c0-.787-.638-1.425-1.425-1.425H52.703a29.309 29.309 0 005.12-8.355h6.28a4.57 4.57 0 004.334 3.137A4.568 4.568 0 0073 45.91a4.568 4.568 0 00-4.563-4.562 4.57 4.57 0 00-4.333 3.136h-5.3a29.496 29.496 0 001.154-8.157v-7.811zm8.48-3.137c.943 0 1.71.767 1.71 1.71 0 .944-.767 1.712-1.71 1.712-.944 0-1.711-.768-1.711-1.711 0-.944.767-1.711 1.71-1.711zm0-22.527c.943 0 1.71.767 1.71 1.71 0 .944-.767 1.711-1.71 1.711-.944 0-1.711-.767-1.711-1.71 0-.944.767-1.711 1.71-1.711zm-63.876 0c.944 0 1.711.767 1.711 1.71 0 .944-.767 1.711-1.71 1.711-.944 0-1.711-.767-1.711-1.71 0-.944.767-1.711 1.71-1.711zm0 25.949c-.943 0-1.71-.768-1.71-1.711 0-.944.767-1.711 1.71-1.711.944 0 1.711.767 1.711 1.71 0 .944-.767 1.712-1.71 1.712zm0 18.82c-.943 0-1.71-.767-1.71-1.71 0-.944.767-1.712 1.71-1.712.944 0 1.711.768 1.711 1.711 0 .944-.767 1.711-1.71 1.711zm0 22.527c-.943 0-1.71-.767-1.71-1.71 0-.944.767-1.711 1.71-1.711.944 0 1.711.767 1.711 1.71 0 .944-.767 1.711-1.71 1.711zm63.876 0c-.944 0-1.711-.767-1.711-1.71 0-.944.767-1.711 1.71-1.711.944 0 1.711.767 1.711 1.71 0 .944-.767 1.711-1.71 1.711zm0-25.949c.943 0 1.71.768 1.71 1.711 0 .944-.767 1.711-1.71 1.711-.944 0-1.711-.767-1.711-1.71 0-.944.767-1.712 1.71-1.712zM36.5 62.216c-12.148-2.782-20.606-13.383-20.606-25.889V21.94A48.464 48.464 0 0036.5 13.226a48.464 48.464 0 0020.606 8.714v14.387c0 12.506-8.458 23.108-20.606 25.89z" fill="#0E1118"/><path d="M36.5 20.11c-9.038 0-16.39 7.352-16.39 16.39 0 6.38 3.745 12.226 9.542 14.895a1.426 1.426 0 101.193-2.59A13.586 13.586 0 0122.96 36.5c0-7.465 6.074-13.539 13.54-13.539 7.464 0 13.538 6.074 13.538 13.54a13.59 13.59 0 01-7.854 12.29 1.426 1.426 0 001.198 2.588c5.776-2.676 9.507-8.516 9.507-14.879 0-9.038-7.352-16.39-16.39-16.39z" fill="#0E1118"/><path d="M36.5 25.813a5.567 5.567 0 00-5.56 5.56v.78a2.87 2.87 0 00-2.852 2.866v3.756c0 4.639 3.773 8.412 8.412 8.412 4.639 0 8.412-3.773 8.412-8.412v-3.756a2.87 2.87 0 00-2.852-2.866v-.78a5.567 5.567 0 00-5.56-5.56zm0 2.852a2.712 2.712 0 012.709 2.709v.778h-5.418v-.779a2.712 2.712 0 012.709-2.708zm5.56 10.11a5.567 5.567 0 01-5.56 5.56 5.567 5.567 0 01-5.56-5.56v-3.756c0-.008.006-.015.015-.015h11.09c.009 0 .015.007.015.015v3.756z" fill="#91B3FA"/><path d="M36.5 37.293c-.788 0-1.426.638-1.426 1.425v1.324a1.426 1.426 0 002.852 0v-1.324c0-.787-.639-1.425-1.426-1.425z" fill="#91B3FA"/><path d="M36.5 50.033c-.788 0-1.426.639-1.426 1.426v.005c0 .788.639 1.423 1.426 1.423a1.428 1.428 0 000-2.854z" fill="#0E1118"/></svg><svg fill="none" viewBox="0 0 21 16" id="envelope" xmlns="http://www.w3.org/2000/svg"><path d="M19.549.071H.724C.324.071 0 .395 0 .795v14.48c0 .401.324.725.724.725h18.825c.4 0 .724-.324.724-.724V.796c0-.401-.324-.725-.724-.725zm-.905 2.507v11.793H1.629V2.578l-.624-.486.889-1.143.968.754h14.55l.97-.754.888 1.143-.626.486zM17.413 1.7l-7.277 5.657L2.86 1.7 1.892.947l-.89 1.143.625.486 7.729 6.01a1.267 1.267 0 001.554 0l7.734-6.008.624-.486-.89-1.143-.965.751z" fill="#fff"/></svg><svg fill="none" viewBox="0 0 73 73" id="history" xmlns="http://www.w3.org/2000/svg"><g clip-path="url(#hclip0)" fill="#fff"><path d="M22.12 54.063l-3.454 3.057a31.743 31.743 0 003.573 3.438l2.92-3.569a26.617 26.617 0 01-3.04-2.926zM17.581 46.939l-4.231 1.817a30.675 30.675 0 002.323 4.393l3.884-2.469a26.405 26.405 0 01-1.976-3.741z"/><path d="M57.503 9.607A31.083 31.083 0 0041.92 5.415c-15.565.025-28.715 11.552-30.779 26.98l-7.885-7.886L0 27.764l13.14 13.14 13.14-13.14-3.256-3.255-7.121 7.112c2.706-14.355 16.537-23.8 30.892-21.093 14.355 2.705 23.8 16.536 21.093 30.892-2.706 14.355-16.536 23.799-30.892 21.093a26.448 26.448 0 01-8.36-3.106l-2.315 3.98c14.851 8.61 33.87 3.552 42.481-11.3 8.61-14.85 3.552-33.87-11.3-42.48z"/><path d="M38.467 15.776v25.326l10.13 7.599 2.763-3.684-8.288-6.217V15.776h-4.605z"/></g><defs><clipPath id="hclip0"><path fill="#fff" d="M0 0h73v73H0z"/></clipPath></defs></svg><svg fill="none" viewBox="0 0 73 73" id="key" xmlns="http://www.w3.org/2000/svg"><path d="M47.76 0C34.155 0 23.087 11.068 23.087 24.673c0 3.025.537 5.964 1.598 8.755L1.094 57.02a1.798 1.798 0 00-.527 1.271v12.91c0 .993.805 1.798 1.798 1.798h10.639c.476 0 .933-.189 1.27-.525l3.585-3.58c.338-.338.528-.795.528-1.273V63.22h4.397c.993 0 1.798-.805 1.798-1.798V59.66h1.762c.993 0 1.798-.805 1.798-1.798v-3.87h3.87c.476 0 .933-.189 1.27-.526l5.721-5.72a24.507 24.507 0 008.757 1.6c13.604 0 24.673-11.069 24.673-24.673C72.433 11.068 61.365 0 47.76 0zm0 45.75c-2.943 0-5.79-.595-8.46-1.767a1.798 1.798 0 00-1.978.36l-.017.015-6.038 6.039h-4.923c-.993 0-1.798.805-1.798 1.798v3.869h-1.762c-.993 0-1.798.805-1.798 1.798v1.762h-4.397c-.993 0-1.798.805-1.798 1.798v5.455l-2.531 2.527H4.164v-2.541L26.14 44.886a1.618 1.618 0 10-2.29-2.289L4.165 62.286v-3.249l23.91-23.911.014-.016a1.798 1.798 0 00.36-1.978 20.931 20.931 0 01-1.765-8.459c0-11.622 9.456-21.077 21.077-21.077 11.622 0 21.077 9.455 21.077 21.077 0 11.622-9.456 21.077-21.077 21.077z" fill="#0E1118"/><path d="M55.269 10.429a6.743 6.743 0 00-6.735 6.735 6.743 6.743 0 006.735 6.735 6.743 6.743 0 006.735-6.735 6.742 6.742 0 00-6.735-6.735zm0 9.873a3.142 3.142 0 01-3.14-3.138 3.142 3.142 0 013.14-3.14 3.142 3.142 0 013.139 3.14 3.142 3.142 0 01-3.14 3.138z" fill="#91B3FA"/></svg><svg fill="none" viewBox="0 0 56 68" id="kyc" xmlns="http://www.w3.org/2000/svg"><g clip-path="url(#jclip0)"><path d="M49.416 46.348h4.465c1.58 0 2.11.515 2.121 2v11.337c0 5.084-3.462 8.313-8.898 8.313H8.734c-4.295 0-7.626-2.345-8.486-5.997a9.885 9.885 0 01-.222-2.298C.009 42.65 0 25.602 0 8.556v-.745c.073-1.06.662-1.609 1.8-1.622 1.554-.02 3.108 0 4.765 0V2.175C6.579.493 7.098 0 8.88 0h38.283c1.728 0 2.26.51 2.26 2.129V45.32l-.007 1.028zM3.3 9.283v50.362c0 3.404 1.924 5.227 5.535 5.23h31.223c.307 0 .61-.03 1.103-.053-1.621-1.941-1.636-4.06-1.633-6.207.01-16.051.01-32.102 0-48.154 0-1.187 0-1.189-1.301-1.189H3.3v.011zm39.514 46.333H44.8c1.296 0 1.301 0 1.301-1.187V4.049c0-.291-.035-.581-.054-.884H9.983V6.19H40.65c1.65 0 2.183.508 2.183 2.018v46.328c-.02.323-.02.65-.02 1.08zm6.6-6.123v7.005c0 1.741-.507 2.22-2.338 2.225H42.82V60c.014 2.816 2.102 4.878 4.936 4.876 2.833-.003 4.926-2.065 4.931-4.883v-9.76c0-.237-.035-.471-.059-.739h-3.215z" fill="#0E1118"/><path d="M32.94 23.177v6.868c0 2.411-1.622 3.947-4.175 3.952-4.91.009-9.82.009-14.73 0-2.473 0-4.114-1.486-4.13-3.813a987.735 987.735 0 010-13.985c.014-2.33 1.556-3.793 4.026-3.81 4.969-.033 9.938-.033 14.907 0 2.541.015 4.092 1.547 4.104 3.92v6.871l-.002-.003zm-19.766.014v6.531c0 1.105.085 1.19 1.233 1.19h14.014c1.122 0 1.223-.094 1.226-1.121V16.646c0-1.105-.09-1.187-1.24-1.187h-14.01c-1.135 0-1.22.077-1.22 1.105l-.003 6.627zM21.47 46.354H8.956a6.381 6.381 0 01-.966-.046 1.61 1.61 0 01-1-.492 1.423 1.423 0 01-.39-.993 1.49 1.49 0 01.376-.992c.246-.279.588-.469.967-.536.234-.034.47-.046.707-.035 8.495 0 16.99.005 25.484.016.5 0 1.148.094 1.456.39.352.341.616 1 .519 1.442-.097.442-.639.853-1.087 1.136-.273.172-.738.106-1.12.106-4.145.004-8.29.006-12.434.004zM21.377 52.535H8.59c-.882 0-1.577-.246-1.9-1.05-.382-.95.3-1.921 1.433-2.007.877-.069 1.763-.042 2.645-.042h23.194c.294-.007.588.008.88.046.399.046.763.234 1.018.526.255.291.38.663.351 1.039-.01.363-.16.71-.422.977-.263.266-.621.434-1.006.47-.41.03-.822.037-1.233.02H21.377v.02zM21.37 40.194H8.77a4.436 4.436 0 01-.875-.06 1.652 1.652 0 01-.932-.54 1.472 1.472 0 01-.357-.974c.004-.353.138-.694.38-.965.24-.27.575-.455.945-.522.319-.043.641-.059.964-.049h25.113c.323-.014.645.008.962.065.783.176 1.179.691 1.242 1.423.028.348-.077.694-.295.977a1.59 1.59 0 01-.897.57 4.333 4.333 0 01-.96.078c-4.23 0-8.46-.001-12.689-.003zM21.436 55.618h9.698c.943 0 1.586.47 1.763 1.209.078.34.031.695-.134 1.007a1.593 1.593 0 01-.776.708 3.657 3.657 0 01-1.204.175c-1.853.015-3.704 0-5.556 0h-12.87c-.295 0-.59 0-.882-.02-.969-.086-1.584-.716-1.563-1.578a1.387 1.387 0 01.113-.568c.077-.18.192-.344.337-.482.145-.139.319-.249.51-.324.19-.075.396-.114.603-.114.848-.046 1.704-.02 2.555-.02l7.406.007z" fill="#0E1118"/><path d="M20.887 23.778c.75-1.403 1.363-2.56 1.978-3.708a6.63 6.63 0 01.471-.794 1.6 1.6 0 01.923-.66 1.708 1.708 0 011.156.092c.738.334 1.179 1.145.809 1.879a136.353 136.353 0 01-3.5 6.56c-.498.864-1.719.906-2.516.186a106.982 106.982 0 01-3.22-3.05 1.517 1.517 0 01-.369-.484 1.432 1.432 0 01.308-1.667c.153-.148.335-.266.537-.347a1.746 1.746 0 011.279-.007c.203.079.387.194.541.34.538.469.988 1.015 1.603 1.66z" fill="#91B3FA"/></g><defs><clipPath id="jclip0"><path fill="#fff" d="M0 0h56v68H0z"/></clipPath></defs></svg><svg fill="none" viewBox="0 0 23 23" id="location" xmlns="http://www.w3.org/2000/svg"><path d="M15.34 15.196c2.447-3.84 2.14-3.361 2.21-3.461a7.357 7.357 0 001.362-4.278C18.912 3.368 15.594 0 11.5 0 7.42 0 4.088 3.362 4.088 7.457c0 1.54.48 3.059 1.401 4.333l2.171 3.406c-2.321.357-6.267 1.42-6.267 3.761 0 .853.557 2.07 3.21 3.017C6.455 22.636 8.905 23 11.5 23c4.853 0 10.107-1.369 10.107-4.043 0-2.341-3.941-3.403-6.267-3.76zm-8.725-4.148a6.046 6.046 0 01-1.18-3.591c0-3.37 2.714-6.11 6.065-6.11 3.344 0 6.064 2.741 6.064 6.11a6.016 6.016 0 01-1.107 3.49c-.065.085.274-.441-4.957 7.767l-4.885-7.666zM11.5 21.652c-5.3 0-8.76-1.558-8.76-2.695 0-.764 1.778-2.021 5.716-2.511l2.476 3.884a.674.674 0 001.136 0l2.475-3.884c3.94.49 5.717 1.747 5.717 2.511 0 1.128-3.428 2.695-8.76 2.695z" fill="#fff"/><path d="M11.5 4.088a3.373 3.373 0 00-3.37 3.369 3.373 3.373 0 003.37 3.37 3.373 3.373 0 003.37-3.37 3.373 3.373 0 00-3.37-3.37zm0 5.39a2.024 2.024 0 01-2.021-2.021c0-1.115.906-2.021 2.021-2.021 1.115 0 2.021.906 2.021 2.021A2.024 2.024 0 0111.5 9.479z" fill="#fff"/></svg><svg fill="none" viewBox="0 0 19 19" id="phone" xmlns="http://www.w3.org/2000/svg"><g clip-path="url(#lclip0)"><path d="M13.656 19a5.292 5.292 0 01-1.816-.325 19.365 19.365 0 01-7.033-4.482A19.365 19.365 0 01.325 7.161a5.255 5.255 0 01-.268-2.583A5.38 5.38 0 012.827.633 5.29 5.29 0 015.36 0c.28 0 .522.196.58.47l.932 4.348a.594.594 0 01-.16.545L5.118 6.955a15.628 15.628 0 006.926 6.926l1.593-1.592a.594.594 0 01.544-.16l4.35.931c.273.059.468.3.468.58 0 .9-.213 1.753-.633 2.534a5.4 5.4 0 01-3.944 2.77 5.275 5.275 0 01-.767.056zM4.886 1.213a4.112 4.112 0 00-2.942 1.753 4.09 4.09 0 00-.503 3.79 18.008 18.008 0 0010.804 10.803 4.09 4.09 0 003.79-.503 4.113 4.113 0 001.752-2.94l-3.538-.759-1.663 1.663a.594.594 0 01-.672.118 16.812 16.812 0 01-8.051-8.051.594.594 0 01.117-.673l1.663-1.663-.758-3.538z" fill="#fff"/></g><defs><clipPath id="lclip0"><path fill="#fff" d="M0 0h19v19H0z"/></clipPath></defs></svg><svg fill="none" viewBox="0 0 73 73" id="reconciliation" xmlns="http://www.w3.org/2000/svg"><path d="M4.867 59.617c0 4.696 3.82 8.516 8.516 8.516 4.697 0 8.517-3.82 8.517-8.516V51.1h-8.517c-4.696 0-8.516 3.82-8.516 8.517zm14.6 0a6.09 6.09 0 01-6.084 6.083A6.09 6.09 0 017.3 59.617a6.09 6.09 0 016.083-6.084h6.084v6.084zM59.617 51.1H51.1v8.517c0 4.696 3.82 8.516 8.517 8.516 4.695 0 8.516-3.82 8.516-8.516 0-4.697-3.821-8.517-8.516-8.517zm0 14.6a6.09 6.09 0 01-6.084-6.083v-6.084h6.084a6.09 6.09 0 016.083 6.084 6.09 6.09 0 01-6.083 6.083z" fill="#91B3FA"/><path d="M59.617 46.233h-6.084V26.767h6.084C66.996 26.767 73 20.762 73 13.383 73 6.004 66.996 0 59.617 0c-7.38 0-13.384 6.004-13.384 13.383v6.084H26.767v-6.084C26.767 6.004 20.762 0 13.383 0 6.004 0 0 6.004 0 13.383c0 7.38 6.004 13.384 13.383 13.384h6.084v19.466h-6.084C6.004 46.233 0 52.238 0 59.617 0 66.996 6.004 73 13.383 73c7.38 0 13.384-6.004 13.384-13.383v-6.084h19.466v6.084C46.233 66.996 52.238 73 59.617 73 66.996 73 73 66.996 73 59.617c0-7.38-6.004-13.384-13.383-13.384zm-10.95-19.466V13.383c0-6.037 4.913-10.95 10.95-10.95 6.038 0 10.95 4.913 10.95 10.95 0 6.037-4.912 10.95-10.95 10.95h-6.084V21.9h6.084c4.695 0 8.516-3.82 8.516-8.517 0-4.696-3.821-8.516-8.516-8.516-4.697 0-8.517 3.82-8.517 8.516v32.85h-2.433V26.767zm4.866-7.3v-6.084A6.09 6.09 0 0159.617 7.3a6.09 6.09 0 016.083 6.083 6.09 6.09 0 01-6.083 6.084h-6.084zM26.767 21.9h19.466v2.433H26.767V21.9zm0 4.867h19.466v19.466H26.767V26.767zm-13.384-2.434c-6.037 0-10.95-4.913-10.95-10.95 0-6.037 4.913-10.95 10.95-10.95 6.037 0 10.95 4.913 10.95 10.95v32.85H21.9V13.383c0-4.696-3.82-8.516-8.517-8.516-4.696 0-8.516 3.82-8.516 8.516 0 4.697 3.82 8.517 8.516 8.517h6.084v2.433h-6.084zm6.084-10.95v6.084h-6.084A6.09 6.09 0 017.3 13.383 6.09 6.09 0 0113.383 7.3a6.09 6.09 0 016.084 6.083zm40.15 57.184c-6.037 0-10.95-4.913-10.95-10.95V51.1H24.333v8.517c0 6.037-4.913 10.95-10.95 10.95-6.037 0-10.95-4.913-10.95-10.95 0-6.037 4.913-10.95 10.95-10.95H59.617c6.038 0 10.95 4.913 10.95 10.95 0 6.037-4.912 10.95-10.95 10.95z" fill="#0E1118"/></svg><svg fill="none" viewBox="0 0 79 79" id="two-factor" xmlns="http://www.w3.org/2000/svg"><g clip-path="url(#nclip0)"><path d="M58.149 60.651v2.327h-8.061c-2.82 0-4.296-1.477-4.3-4.313V42.952c0-4.247.018-8.475 0-12.712-.013-1.756.471-3.176 2.142-4.025a.942.942 0 00.34-.708c.028-2.147 0-4.297.03-6.444 0-.745-.415-.69-.906-.69H13.45v7.55h31.018v2.29h-33.34V16.105h39.428v9.782c.391.018.675.047.958.047h12.184c2.889 0 4.233 1.338 4.248 4.202V44.535c.825 0 1.588-.054 2.338.021.451.026.884.191 1.239.472a138.144 138.144 0 014.674 4.686c.263.332.402.744.394 1.168.026 5.386.019 10.77.019 16.156v1l1.213.074v4.862l1.18.092v5.918h-2.216v-3.587H65.492V79h-2.299v-5.92l1.18-.087v-4.862l1.402-.1c-.248-.52-.352-1-.642-1.304-1.298-1.366-2.657-2.671-3.971-4.011-.236-.236-.472-.583-.472-.88-.033-3.232-.021-6.467-.021-9.824h4.955V50.95 30.29c0-1.731-.975-2.474-2.631-1.972-.194.06-.368.345-.45.562-.225.575-.385 1.18-.586 1.757-.302.878-.922 1.355-1.852 1.36h-6.357c-.901 0-1.489-.473-1.805-1.303-.146-.385-.236-.788-.408-1.166-.172-.377-.352-1.094-.625-1.146a4.72 4.72 0 00-2.072.132c-.658.186-.708.845-.708 1.468v28.691c0 1.522.472 1.992 2.01 1.996h6.978l1.03-.019zm9.91 7.366h6.184c.022-.136.037-.273.045-.41 0-5.325 0-10.648-.016-15.973a1.61 1.61 0 00-.425-.981c-.883-.944-1.914-1.77-2.709-2.777-.88-1.119-1.937-1.11-3.228-.925v12.268h-2.314v-4.858H63c0 1.61.094 3.17-.028 4.72-.123 1.55.236 2.72 1.493 3.668.708.521 1.227 1.27 1.888 1.85 1.015.896 1.911 1.819 1.652 3.333-.024.017.011.038.052.085h.002zm7.432 2.44h-8.749v2.515h8.747l.002-2.515zM53.668 28.333c.319 1.324.319 1.324 1.5 1.324h3.523c1.272 0 1.272 0 1.416-1.324h-6.439z" fill="#0E1118"/><path d="M2.31 9.746v39.718h21.092v2.305H0V0h61.697v23.26h-2.236V9.747H2.31zm57.063-7.422h-34.76v4.99h34.76v-4.99zM22.18 2.319H2.312v4.995H22.18V2.319z" fill="#0E1118"/><path d="M25.983 62.914V45.811h3.679v-2.753c0-1.147-.024-2.296 0-3.442.042-1.373.786-2.36 2.086-2.426 1.907-.11 3.819-.11 5.726 0 1.244.069 1.93 1.012 1.956 2.414.033 1.706 0 3.411 0 5.12v1.047h3.662v17.145l-17.109-.002zm14.771-2.307V48.166H28.36v12.44h12.395zm-8.707-14.892h4.998V39.49h-4.998v6.224z" fill="#91B3FA"/><path d="M23.437 35.928v2.213H11.132v-2.213h12.305zM50.801 40.857h12.293v2.248H50.801v-2.248zM18.475 30.954v2.244h-7.314v-2.244h7.314zM50.794 38.141v-2.22h7.338v2.22h-7.338z" fill="#0E1118"/><path d="M22.29 21.01h2.344v2.23H22.29v-2.23zM29.627 21.052v2.209h-2.398v-2.209h2.398zM34.567 23.268h-2.36V21.03h2.36v2.237zM37.165 21.034h2.36v2.23h-2.36v-2.23z" fill="#91B3FA"/><path d="M6.187 3.671h2.36v2.227h-2.36V3.671zM13.525 3.709v2.19h-2.383v-2.19h2.383zM18.48 3.711v2.187H16.1V3.711h2.38z" fill="#0E1118"/><path d="M35.726 59.22h-2.34c0-.664-.027-1.3 0-1.933a1.045 1.045 0 00-.614-1.114 3.597 3.597 0 01-1.263-5.046 3.632 3.632 0 015.068-1.208 3.634 3.634 0 011.067 5.098c-.217.34-.49.765-.83.883-1.164.403-1.18 1.278-1.105 2.248.04.345.017.69.017 1.071zm-1.074-4.885a1.342 1.342 0 001.291-1.307 1.395 1.395 0 00-1.326-1.285 1.368 1.368 0 00-1.279 1.323 1.321 1.321 0 001.314 1.272v-.003z" fill="#91B3FA"/></g><defs><clipPath id="nclip0"><path fill="#fff" d="M0 0h79v79H0z"/></clipPath></defs></svg><svg fill="none" viewBox="0 0 67 67" id="user" xmlns="http://www.w3.org/2000/svg"><path d="M33.023 32.274c4.433 0 8.272-1.59 11.41-4.728 3.136-3.137 4.727-6.975 4.727-11.41 0-4.432-1.59-8.271-4.728-11.41C41.295 1.59 37.456 0 33.022 0s-8.272 1.59-11.41 4.727c-3.136 3.137-4.727 6.976-4.727 11.41s1.59 8.273 4.728 11.41c3.138 3.136 6.977 4.727 11.41 4.727zm-8.634-24.77c2.408-2.408 5.231-3.578 8.634-3.578 3.401 0 6.226 1.17 8.633 3.577 2.407 2.408 3.578 5.232 3.578 8.634s-1.17 6.226-3.578 8.633c-2.407 2.408-5.232 3.578-8.633 3.578-3.402 0-6.226-1.17-8.634-3.578-2.407-2.407-3.578-5.231-3.578-8.633 0-3.402 1.17-6.226 3.578-8.634zM61.26 51.52a39.857 39.857 0 00-.544-4.234 33.34 33.34 0 00-1.041-4.256 21.023 21.023 0 00-1.75-3.97c-.755-1.33-1.643-2.486-2.638-3.439-1.042-.996-2.317-1.797-3.79-2.381-1.47-.582-3.098-.876-4.84-.876-.683 0-1.345.28-2.622 1.112-.786.513-1.706 1.106-2.732 1.762-.878.559-2.067 1.083-3.536 1.557a14.04 14.04 0 01-4.324.7 14.05 14.05 0 01-4.324-.7c-1.467-.474-2.656-.997-3.532-1.557a375.334 375.334 0 01-2.735-1.762c-1.277-.832-1.938-1.112-2.622-1.112-1.742 0-3.37.294-4.838.876-1.473.583-2.749 1.384-3.791 2.382-.996.953-1.883 2.11-2.638 3.438a21.065 21.065 0 00-1.75 3.97 33.435 33.435 0 00-1.04 4.256 39.586 39.586 0 00-.543 4.235 57.337 57.337 0 00-.134 3.956c0 3.498 1.112 6.33 3.304 8.417C10.966 65.955 13.83 67 17.315 67h32.26c3.484 0 6.349-1.045 8.515-3.106 2.193-2.086 3.304-4.919 3.304-8.417 0-1.35-.045-2.682-.135-3.957zm-5.877 9.53c-1.431 1.361-3.33 2.024-5.808 2.024h-32.26c-2.478 0-4.377-.663-5.808-2.024-1.403-1.335-2.085-3.159-2.085-5.572 0-1.256.042-2.495.125-3.686.08-1.167.245-2.45.49-3.812.242-1.346.55-2.61.916-3.753.351-1.096.83-2.182 1.424-3.228.567-.997 1.22-1.852 1.939-2.54.673-.645 1.522-1.173 2.521-1.569.925-.366 1.964-.566 3.093-.596.137.073.382.213.779.471.807.526 1.737 1.126 2.765 1.783 1.16.74 2.653 1.407 4.438 1.983 1.824.59 3.685.89 5.532.89s3.708-.3 5.531-.89c1.786-.577 3.28-1.244 4.44-1.984a355.405 355.405 0 002.764-1.782c.397-.258.642-.398.78-.471 1.128.03 2.167.23 3.092.596 1 .396 1.848.924 2.521 1.568.72.689 1.372 1.544 1.94 2.542a17.09 17.09 0 011.424 3.227c.366 1.145.675 2.407.916 3.752.244 1.365.41 2.649.49 3.814v.001c.084 1.186.126 2.425.126 3.684 0 2.414-.682 4.237-2.085 5.572z" fill="#0E1118"/></svg><svg fill="none" viewBox="0 0 107 69" id="users" xmlns="http://www.w3.org/2000/svg"><path d="M92.54 30.424c3.133-2.201 5.208-5.864 5.208-9.992A12.207 12.207 0 0085.532 8.216a12.207 12.207 0 00-12.216 12.216c0 4.128 2.054 7.79 5.209 9.992a21.167 21.167 0 00-7.22 4.235 27.388 27.388 0 00-9.908-5.399c4.467-2.71 7.473-7.643 7.473-13.253C68.87 7.454 61.947.53 53.394.53S37.918 7.475 37.918 16.007c0 5.61 2.985 10.543 7.473 13.253a27.618 27.618 0 00-9.802 5.335 21.34 21.34 0 00-7.135-4.15c3.134-2.201 5.208-5.864 5.208-9.992A12.207 12.207 0 0021.447 8.237 12.207 12.207 0 009.23 20.453c0 4.128 2.053 7.79 5.208 9.993C6.034 33.346 0 41.328 0 50.706v1.398c0 .042.042.085.085.085h25.892a28.475 28.475 0 00-.233 3.578v1.44c0 6.224 5.04 11.262 11.264 11.262h32.815c6.225 0 11.263-5.038 11.263-11.263v-1.44c0-1.206-.084-2.413-.233-3.577h26.062a.09.09 0 00.085-.085v-1.397c-.042-9.4-6.055-17.382-14.46-20.283zM76.704 20.41c0-4.869 3.959-8.828 8.828-8.828 4.87 0 8.829 3.959 8.829 8.828 0 4.806-3.875 8.723-8.66 8.829h-.339c-4.805-.085-8.658-4.002-8.658-8.829zm-35.441-4.403c0-6.67 5.42-12.09 12.089-12.09 6.669 0 12.089 5.42 12.089 12.09 0 6.436-5.06 11.707-11.39 12.067h-1.398c-6.33-.36-11.39-5.631-11.39-12.067zM12.555 20.41c0-4.869 3.959-8.828 8.828-8.828 4.87 0 8.829 3.959 8.829 8.828 0 4.806-3.875 8.723-8.66 8.829h-.339c-4.784-.085-8.658-4.002-8.658-8.829zM26.57 48.78H3.43c.952-9.019 8.574-16.09 17.826-16.154h.254c4.404.022 8.426 1.652 11.538 4.298A27.798 27.798 0 0026.57 48.78zm51.086 8.426c0 4.34-3.535 7.876-7.875 7.876H36.965c-4.34 0-7.876-3.536-7.876-7.876v-1.44c0-13.147 10.501-23.902 23.564-24.283.233.021.487.021.72.021.233 0 .487 0 .72-.021 13.063.381 23.563 11.136 23.563 24.284v1.44zm2.52-8.426a27.724 27.724 0 00-6.415-11.771 17.987 17.987 0 0111.644-4.383h.254c9.252.064 16.874 7.135 17.827 16.154h-23.31z" fill="#fff"/></svg><svg fill="none" viewBox="0 0 73 73" id="wallet" xmlns="http://www.w3.org/2000/svg"><path d="M27.07 47.45h-2.372a1.217 1.217 0 000 2.433h2.372a1.217 1.217 0 000-2.433zM19.953 47.45h-2.37a1.217 1.217 0 000 2.433h2.37a1.217 1.217 0 000-2.433zM12.84 47.45h-.673a1.2 1.2 0 01-.78-.286 1.218 1.218 0 10-1.565 1.868 3.65 3.65 0 002.345.851h.674a1.217 1.217 0 000-2.433zM10.95 43.618v-2.373a1.217 1.217 0 10-2.433 0v2.373a1.217 1.217 0 102.433 0zM34.188 47.45h-2.372a1.217 1.217 0 100 2.433h2.372a1.217 1.217 0 000-2.433zM20.69 6.083h-2.455a1.217 1.217 0 100 2.434h2.454a1.217 1.217 0 100-2.434zM13.331 6.083h-1.164c-.65 0-1.287.174-1.846.504a1.217 1.217 0 101.237 2.096c.184-.11.395-.167.609-.166h1.164a1.217 1.217 0 100-2.434zM28.049 6.083h-2.454a1.217 1.217 0 100 2.434h2.454a1.217 1.217 0 100-2.434zM35.405 6.083h-2.45a1.217 1.217 0 100 2.434h2.45a1.217 1.217 0 100-2.434zM9.733 10.892c-.672 0-1.216.544-1.216 1.216v2.453a1.217 1.217 0 102.433 0v-2.453c0-.672-.545-1.216-1.217-1.216zM57.183 12.337v2.453a1.217 1.217 0 102.434 0v-2.453a1.216 1.216 0 10-2.434 0zM55.031 8.517h.936c.254 0 .501.08.706.23A1.217 1.217 0 1058.1 6.774a3.618 3.618 0 00-2.132-.69h-.936a1.217 1.217 0 100 2.433zM47.674 8.517h2.453a1.217 1.217 0 100-2.434h-2.453a1.217 1.217 0 100 2.434zM43.983 7.3c0-.672-.545-1.217-1.217-1.217h-2.452a1.217 1.217 0 100 2.434h2.452c.672 0 1.217-.545 1.217-1.217z" fill="#0E1118"/><path d="M15.817 24.333a3.65 3.65 0 100 7.3 3.65 3.65 0 000-7.3zm0 4.867a1.217 1.217 0 110-2.433 1.217 1.217 0 010 2.433z" fill="#91B3FA"/><path d="M70.567 42.583H69.35V32.85c0-3.993-1.785-7.777-4.867-10.316V7.3A6.091 6.091 0 0058.4 1.217H9.733A6.09 6.09 0 003.65 7.3v12.34A4.867 4.867 0 000 24.333v7.3a4.867 4.867 0 003.65 4.694v12.34a6.09 6.09 0 006.083 6.083h29.2v8.517a8.526 8.526 0 008.517 8.516h17.033A8.526 8.526 0 0073 63.267v-18.25a2.433 2.433 0 00-2.433-2.434zm-3.65-9.733v9.733h-21.9V32.85c0-6.047 4.902-10.95 10.95-10.95 6.047 0 10.95 4.903 10.95 10.95zm-62.05 1.217a2.433 2.433 0 01-2.434-2.434v-7.3A2.433 2.433 0 014.867 21.9h14.6a2.433 2.433 0 012.433 2.433v7.3a2.433 2.433 0 01-2.433 2.434h-14.6zm34.066 10.95v2.433a1.217 1.217 0 000 2.433v2.434h-29.2a3.65 3.65 0 01-3.65-3.65V36.5h2.434a1.217 1.217 0 102.433 0h8.517a4.867 4.867 0 004.866-4.867v-7.3a4.867 4.867 0 00-4.866-4.866H10.95a1.216 1.216 0 10-2.433 0H6.083V7.3a3.65 3.65 0 013.65-3.65H58.4a3.65 3.65 0 013.65 3.65v13.644a13.338 13.338 0 00-2.433-.959v-.275c0-.672-.545-1.217-1.217-1.217a1.2 1.2 0 00-1.18 1.037 13.73 13.73 0 00-1.253-.063c-7.388.008-13.375 5.995-13.384 13.383v9.733h-1.216a2.433 2.433 0 00-2.434 2.434zm31.634 2.433h-3.65a1.217 1.217 0 000 2.433h3.65v2.434h-3.65a1.217 1.217 0 100 2.433h3.65v2.433h-3.65a1.217 1.217 0 000 2.434h3.65v2.433h-3.65a1.217 1.217 0 100 2.433h3.528a6.094 6.094 0 01-5.962 4.867H47.45a6.094 6.094 0 01-5.962-4.867h3.529a1.217 1.217 0 100-2.433h-3.65v-2.433h3.65a1.217 1.217 0 000-2.434h-3.65V54.75h3.65a1.217 1.217 0 000-2.433h-3.65v-2.434h3.65a1.217 1.217 0 000-2.433h-3.65v-2.433h29.2v2.433z" fill="#0E1118"/><path d="M54.75 58.176v2.657a1.217 1.217 0 002.433 0v-2.657a3.641 3.641 0 00-1.216-7.076 3.641 3.641 0 00-1.217 7.076zm1.217-4.643a1.217 1.217 0 110 2.434 1.217 1.217 0 010-2.434z" fill="#91B3FA"/></svg></svg>